{
  "source": "C:\\Users\\Peter\\Desktop\\stuff\\MIUN\\quantitative_research\\video_compression\\videos\\BVI-HD\\BVI-HD_CDVL_videos\\ORIG\\Lightreef_1920x1080_30fps.mp4",
  "output": "C:\\Users\\Peter\\Desktop\\stuff\\MIUN\\quantitative_research\\video_compression\\compressed_videos\\BVI-HD\\hevc\\8\\Lightreef_1920x1080_30fps_hevc.mp4",
  "codec": "hevc",
  "ok": "Input #0, mov,mp4,m4a,3gp,3g2,mj2, from 'C:\\Users\\Peter\\Desktop\\stuff\\MIUN\\quantitative_research\\video_compression\\videos\\BVI-HD\\BVI-HD_CDVL_videos\\ORIG\\Lightreef_1920x1080_30fps.mp4':\n  Metadata:\n    major_brand     : isom\n    minor_version   : 512\n    compatible_brands: isomiso2avc1mp41\n    encoder         : Lavf54.28.101\n  Duration: 00:00:05.00, start: 0.000000, bitrate: 361719 kb/s\n  Stream #0:0[0x1](und): Video: h264 (High 4:4:4 Predictive) (avc1 / 0x31637661), yuv420p(progressive), 1920x1080, 361715 kb/s, 30 fps, 30 tbr, 30 tbn (default)\n    Metadata:\n      handler_name    : VideoHandler\n      vendor_id       : [0][0][0][0]\n[out#0/mp4 @ 0000024ab329ab00] Codec AVOption b:a (set bitrate (in bits/s)) has not been used for any stream. The most likely reason is either wrong type (e.g. a video option with no video streams) or that it is a private option of some decoder which was not actually used for any stream.\nStream mapping:\n  Stream #0:0 -> #0:0 (h264 (native) -> hevc (libx265))\nPress [q] to stop, [?] for help\n[libx265 @ 0000024ab3ef0bc0] Unknown option: \"aq-mode.\nx265 [info]: HEVC encoder version 4.1+190-8f11c33ac\nx265 [info]: build info [Windows][GCC 15.1.0][64 bit] 10bit\nx265 [info]: using cpu capabilities: MMX2 SSE2Fast LZCNT SSSE3 SSE4.2 AVX FMA3 BMI2 AVX2\nx265 [info]: Main 10 profile, Level-4 (Main tier)\nx265 [info]: Thread pool created using 12 threads\nx265 [info]: Slices                              : 1\nx265 [info]: frame threads / pool features       : 3 / wpp(17 rows)\nx265 [info]: Coding QT: max CU size, min CU size : 64 / 8\nx265 [info]: Residual QT: max TU size, max depth : 32 / 1 inter / 1 intra\nx265 [info]: ME / range / subpel / merge         : star / 57 / 3 / 3\nx265 [info]: Keyframe min / max / scenecut / bias  : 25 / 250 / 40 / 5.00 \nx265 [info]: Lookahead / bframes / badapt        : 25 / 4 / 2\nx265 [info]: b-pyramid / weightp / weightb       : 1 / 1 / 0\nx265 [info]: References / ref-limit  cu / depth  : 4 / on / on\nx265 [info]: AQ: mode / str / qg-size / cu-tree  : 2 / 1.0 / 32 / 1\nx265 [info]: Rate Control / qCompress            : ABR-8000 kbps / 0.60\nx265 [info]: VBV/HRD buffer / max-rate / init    : 8000 / 8000 / 0.750\nx265 [info]: tools: rect limit-modes rd=4 psy-rd=2.00 rdoq=2 psy-rdoq=1.00\nx265 [info]: tools: rskip mode=1 signhide tmvp strong-intra-smoothing lslices=4\nx265 [info]: tools: deblock sao dhdr10-info\nOutput #0, mp4, to 'C:\\Users\\Peter\\Desktop\\stuff\\MIUN\\quantitative_research\\video_compression\\compressed_videos\\BVI-HD\\hevc\\8\\Lightreef_1920x1080_30fps_hevc.mp4':\n  Metadata:\n    major_brand     : isom\n    minor_version   : 512\n    compatible_brands: isomiso2avc1mp41\n    encoder         : Lavf62.3.100\n  Stream #0:0(und): Video: hevc (hev1 / 0x31766568), yuv420p10le(tv, progressive), 1920x1080, q=2-31, 8000 kb/s, 30 fps, 15360 tbn (default)\n    Metadata:\n      encoder         : Lavc62.11.100 libx265\n      handler_name    : VideoHandler\n      vendor_id       : [0][0][0][0]\n    Side data:\n      cpb: bitrate max/min/avg: 8000000/0/8000000 buffer size: 8000000 vbv_delay: N/A\nframe=    0 fps=0.0 q=0.0 size=       0KiB time=N/A bitrate=N/A speed=N/A elapsed=0:00:01.10    \nframe=    0 fps=0.0 q=0.0 size=       0KiB time=N/A bitrate=N/A speed=N/A elapsed=0:00:01.72    \nframe=    0 fps=0.0 q=0.0 size=       0KiB time=N/A bitrate=N/A speed=N/A elapsed=0:00:02.29    \nframe=    0 fps=0.0 q=0.0 size=       0KiB time=N/A bitrate=N/A speed=N/A elapsed=0:00:02.81    \nframe=    0 fps=0.0 q=0.0 size=       0KiB time=N/A bitrate=N/A speed=N/A elapsed=0:00:03.33    \nframe=    0 fps=0.0 q=0.0 size=       0KiB time=N/A bitrate=N/A speed=N/A elapsed=0:00:03.90    \nframe=    0 fps=0.0 q=0.0 size=       0KiB time=N/A bitrate=N/A speed=N/A elapsed=0:00:04.43    \nframe=    0 fps=0.0 q=0.0 size=       0KiB time=N/A bitrate=N/A speed=N/A elapsed=0:00:04.95    \nframe=    0 fps=0.0 q=0.0 size=       0KiB time=N/A bitrate=N/A speed=N/A elapsed=0:00:05.49    \nframe=    0 fps=0.0 q=0.0 size=       0KiB time=N/A bitrate=N/A speed=N/A elapsed=0:00:06.01    \nframe=    0 fps=0.0 q=0.0 size=       0KiB time=N/A bitrate=N/A speed=N/A elapsed=0:00:06.53    \nframe=    0 fps=0.0 q=0.0 size=       0KiB time=N/A bitrate=N/A speed=N/A elapsed=0:00:07.04    \nframe=    0 fps=0.0 q=0.0 size=       0KiB time=N/A bitrate=N/A speed=N/A elapsed=0:00:07.56    \nframe=    0 fps=0.0 q=0.0 size=       0KiB time=N/A bitrate=N/A speed=N/A elapsed=0:00:08.08    \nframe=    0 fps=0.0 q=0.0 size=       0KiB time=N/A bitrate=N/A speed=N/A elapsed=0:00:08.58    \nframe=    0 fps=0.0 q=0.0 size=       0KiB time=N/A bitrate=N/A speed=N/A elapsed=0:00:09.12    \nframe=    0 fps=0.0 q=0.0 size=       0KiB time=N/A bitrate=N/A speed=N/A elapsed=0:00:09.65    \nframe=    0 fps=0.0 q=0.0 size=       0KiB time=N/A bitrate=N/A speed=N/A elapsed=0:00:10.18    \nframe=    0 fps=0.0 q=0.0 size=       0KiB time=N/A bitrate=N/A speed=N/A elapsed=0:00:10.72    \nframe=    0 fps=0.0 q=0.0 size=       0KiB time=N/A bitrate=N/A speed=N/A elapsed=0:00:11.26    \nframe=    0 fps=0.0 q=0.0 size=       0KiB time=N/A bitrate=N/A speed=N/A elapsed=0:00:11.80    \nframe=    0 fps=0.0 q=0.0 size=       0KiB time=N/A bitrate=N/A speed=N/A elapsed=0:00:12.33    \nframe=    0 fps=0.0 q=0.0 size=       0KiB time=N/A bitrate=N/A speed=N/A elapsed=0:00:12.85    \nframe=    0 fps=0.0 q=0.0 size=       0KiB time=N/A bitrate=N/A speed=N/A elapsed=0:00:13.37    \nframe=    0 fps=0.0 q=0.0 size=       0KiB time=N/A bitrate=N/A speed=N/A elapsed=0:00:13.89    \nframe=    0 fps=0.0 q=0.0 size=       0KiB time=N/A bitrate=N/A speed=N/A elapsed=0:00:14.43    \nframe=    0 fps=0.0 q=0.0 size=       0KiB time=N/A bitrate=N/A speed=N/A elapsed=0:00:14.97    \nframe=    1 fps=0.1 q=27.7 size=       0KiB time=-00:00:00.03 bitrate=N/A speed=N/A elapsed=0:00:15.50    \nframe=    1 fps=0.1 q=27.7 size=       0KiB time=-00:00:00.03 bitrate=N/A speed=N/A elapsed=0:00:16.04    \nframe=    1 fps=0.1 q=27.7 size=       0KiB time=-00:00:00.03 bitrate=N/A speed=N/A elapsed=0:00:16.59    \nframe=    1 fps=0.1 q=27.7 size=       0KiB time=-00:00:00.03 bitrate=N/A speed=N/A elapsed=0:00:17.12    \nframe=    1 fps=0.1 q=27.7 size=       0KiB time=-00:00:00.03 bitrate=N/A speed=N/A elapsed=0:00:17.64    \nframe=    1 fps=0.1 q=27.7 size=       0KiB time=-00:00:00.03 bitrate=N/A speed=N/A elapsed=0:00:18.18    \nframe=    1 fps=0.1 q=27.7 size=       0KiB time=-00:00:00.03 bitrate=N/A speed=N/A elapsed=0:00:18.71    \nframe=    1 fps=0.1 q=27.7 size=       0KiB time=-00:00:00.03 bitrate=N/A speed=N/A elapsed=0:00:19.25    \nframe=    1 fps=0.1 q=27.7 size=       0KiB time=-00:00:00.03 bitrate=N/A speed=N/A elapsed=0:00:19.77    \nframe=    1 fps=0.0 q=27.7 size=       0KiB time=-00:00:00.03 bitrate=N/A speed=N/A elapsed=0:00:20.31    \nframe=    2 fps=0.1 q=34.5 size=       0KiB time=00:00:00.00 bitrate=N/A speed=   0x elapsed=0:00:20.83    \nframe=    2 fps=0.1 q=34.5 size=       0KiB time=00:00:00.00 bitrate=N/A speed=   0x elapsed=0:00:21.38    \nframe=    2 fps=0.1 q=34.5 size=       0KiB time=00:00:00.00 bitrate=N/A speed=   0x elapsed=0:00:21.90    \nframe=    2 fps=0.1 q=34.5 size=       0KiB time=00:00:00.00 bitrate=N/A speed=   0x elapsed=0:00:22.42    \nframe=    2 fps=0.1 q=34.5 size=       0KiB time=00:00:00.00 bitrate=N/A speed=   0x elapsed=0:00:22.94    \nframe=    2 fps=0.1 q=34.5 size=       0KiB time=00:00:00.00 bitrate=N/A speed=   0x elapsed=0:00:23.45    \nframe=    2 fps=0.1 q=34.5 size=       0KiB time=00:00:00.00 bitrate=N/A speed=   0x elapsed=0:00:23.96    \nframe=    3 fps=0.1 q=39.3 size=     256KiB time=00:00:00.03 bitrate=62925.7kbits/s speed=0.00136x elapsed=0:00:24.50    \nframe=    3 fps=0.1 q=39.3 size=     256KiB time=00:00:00.03 bitrate=62925.7kbits/s speed=0.00133x elapsed=0:00:25.03    \nframe=    4 fps=0.2 q=40.6 size=     256KiB time=00:00:00.06 bitrate=31462.4kbits/s speed=0.00261x elapsed=0:00:25.54    \nframe=    4 fps=0.2 q=40.6 size=     256KiB time=00:00:00.06 bitrate=31462.4kbits/s speed=0.00256x elapsed=0:00:26.07    \nframe=    4 fps=0.2 q=40.6 size=     256KiB time=00:00:00.06 bitrate=31462.4kbits/s speed=0.00251x elapsed=0:00:26.59    \nframe=    4 fps=0.1 q=40.6 size=     256KiB time=00:00:00.06 bitrate=31462.4kbits/s speed=0.00246x elapsed=0:00:27.11    \nframe=    4 fps=0.1 q=40.6 size=     256KiB time=00:00:00.06 bitrate=31462.4kbits/s speed=0.00241x elapsed=0:00:27.65    \nframe=    4 fps=0.1 q=40.6 size=     256KiB time=00:00:00.06 bitrate=31462.4kbits/s speed=0.00236x elapsed=0:00:28.19    \nframe=    5 fps=0.2 q=40.5 size=     256KiB time=00:00:00.10 bitrate=20975.0kbits/s speed=0.00348x elapsed=0:00:28.71    \nframe=    5 fps=0.2 q=40.5 size=     256KiB time=00:00:00.10 bitrate=20975.0kbits/s speed=0.00342x elapsed=0:00:29.24    \nframe=    5 fps=0.2 q=40.5 size=     256KiB time=00:00:00.10 bitrate=20975.0kbits/s speed=0.00336x elapsed=0:00:29.76    \nframe=    6 fps=0.2 q=40.2 size=     256KiB time=00:00:00.13 bitrate=15731.3kbits/s speed=0.0044x elapsed=0:00:30.29    \nframe=    6 fps=0.2 q=40.2 size=     256KiB time=00:00:00.13 bitrate=15731.3kbits/s speed=0.00432x elapsed=0:00:30.83    \nframe=    6 fps=0.2 q=40.2 size=     256KiB time=00:00:00.13 bitrate=15731.3kbits/s speed=0.00425x elapsed=0:00:31.35    \nframe=    6 fps=0.2 q=40.2 size=     256KiB time=00:00:00.13 bitrate=15731.3kbits/s speed=0.00418x elapsed=0:00:31.87    \nframe=    7 fps=0.2 q=33.9 size=     256KiB time=00:00:00.16 bitrate=12585.0kbits/s speed=0.00515x elapsed=0:00:32.39    \nframe=    7 fps=0.2 q=33.9 size=     256KiB time=00:00:00.16 bitrate=12585.0kbits/s speed=0.00506x elapsed=0:00:32.93    \nframe=    7 fps=0.2 q=33.9 size=     256KiB time=00:00:00.16 bitrate=12585.0kbits/s speed=0.00498x elapsed=0:00:33.48    \nframe=    7 fps=0.2 q=33.9 size=     256KiB time=00:00:00.16 bitrate=12585.0kbits/s speed=0.00489x elapsed=0:00:34.05    \nframe=    7 fps=0.2 q=33.9 size=     256KiB time=00:00:00.16 bitrate=12585.0kbits/s speed=0.00481x elapsed=0:00:34.63    \nframe=    7 fps=0.2 q=33.9 size=     256KiB time=00:00:00.16 bitrate=12585.0kbits/s speed=0.00474x elapsed=0:00:35.18    \nframe=    8 fps=0.2 q=37.6 size=     256KiB time=00:00:00.20 bitrate=10487.5kbits/s speed=0.0056x elapsed=0:00:35.70    \nframe=    9 fps=0.2 q=39.4 size=     256KiB time=00:00:00.23 bitrate=8989.3kbits/s speed=0.00644x elapsed=0:00:36.22    \nframe=    9 fps=0.2 q=39.4 size=     256KiB time=00:00:00.23 bitrate=8989.3kbits/s speed=0.00635x elapsed=0:00:36.74    \nframe=    9 fps=0.2 q=39.4 size=     256KiB time=00:00:00.23 bitrate=8989.3kbits/s speed=0.00626x elapsed=0:00:37.26    \nframe=    9 fps=0.2 q=39.4 size=     256KiB time=00:00:00.23 bitrate=8989.3kbits/s speed=0.00618x elapsed=0:00:37.78    \nframe=    9 fps=0.2 q=39.4 size=     256KiB time=00:00:00.23 bitrate=8989.3kbits/s speed=0.00609x elapsed=0:00:38.32    \nframe=    9 fps=0.2 q=39.4 size=     256KiB time=00:00:00.23 bitrate=8989.3kbits/s speed=0.006x elapsed=0:00:38.86    \nframe=    9 fps=0.2 q=39.4 size=     256KiB time=00:00:00.23 bitrate=8989.3kbits/s speed=0.00593x elapsed=0:00:39.37    \nframe=   10 fps=0.3 q=39.1 size=     256KiB time=00:00:00.26 bitrate=7865.6kbits/s speed=0.00669x elapsed=0:00:39.89    \nframe=   10 fps=0.2 q=39.1 size=     256KiB time=00:00:00.26 bitrate=7865.6kbits/s speed=0.00659x elapsed=0:00:40.44    \nframe=   10 fps=0.2 q=39.1 size=     256KiB time=00:00:00.26 bitrate=7865.6kbits/s speed=0.00651x elapsed=0:00:40.96    \nframe=   11 fps=0.3 q=39.1 size=     256KiB time=00:00:00.26 bitrate=7865.6kbits/s speed=0.00643x elapsed=0:00:41.48    \nframe=   11 fps=0.3 q=39.1 size=     256KiB time=00:00:00.30 bitrate=6991.7kbits/s speed=0.00714x elapsed=0:00:41.99    \nframe=   11 fps=0.3 q=39.1 size=     256KiB time=00:00:00.30 bitrate=6991.7kbits/s speed=0.00706x elapsed=0:00:42.51    \nframe=   11 fps=0.3 q=39.1 size=     256KiB time=00:00:00.30 bitrate=6991.7kbits/s speed=0.00697x elapsed=0:00:43.02    \nframe=   11 fps=0.3 q=39.1 size=     256KiB time=00:00:00.30 bitrate=6991.7kbits/s speed=0.00688x elapsed=0:00:43.57    \nframe=   12 fps=0.3 q=31.3 size=     256KiB time=00:00:00.33 bitrate=6292.5kbits/s speed=0.00756x elapsed=0:00:44.09    \nframe=   12 fps=0.3 q=31.3 size=     256KiB time=00:00:00.33 bitrate=6292.5kbits/s speed=0.00746x elapsed=0:00:44.68    \nframe=   12 fps=0.3 q=31.3 size=     256KiB time=00:00:00.33 bitrate=6292.5kbits/s speed=0.00737x elapsed=0:00:45.21    \nframe=   12 fps=0.3 q=31.3 size=     256KiB time=00:00:00.33 bitrate=6292.5kbits/s speed=0.00729x elapsed=0:00:45.74    \nframe=   12 fps=0.3 q=31.3 size=     256KiB time=00:00:00.33 bitrate=6292.5kbits/s speed=0.0072x elapsed=0:00:46.27    \nframe=   12 fps=0.3 q=31.3 size=     256KiB time=00:00:00.33 bitrate=6292.5kbits/s speed=0.00712x elapsed=0:00:46.83    \nframe=   12 fps=0.3 q=31.3 size=     256KiB time=00:00:00.33 bitrate=6292.5kbits/s speed=0.00704x elapsed=0:00:47.37    \nframe=   12 fps=0.3 q=31.3 size=     256KiB time=00:00:00.33 bitrate=6292.5kbits/s speed=0.00696x elapsed=0:00:47.88    \nframe=   12 fps=0.2 q=31.3 size=     256KiB time=00:00:00.33 bitrate=6292.5kbits/s speed=0.00688x elapsed=0:00:48.41    \nframe=   13 fps=0.3 q=35.7 size=     256KiB time=00:00:00.36 bitrate=5720.5kbits/s speed=0.00749x elapsed=0:00:48.93    \nframe=   13 fps=0.3 q=35.7 size=     256KiB time=00:00:00.36 bitrate=5720.5kbits/s speed=0.00741x elapsed=0:00:49.45    \nframe=   13 fps=0.3 q=35.7 size=     256KiB time=00:00:00.36 bitrate=5720.5kbits/s speed=0.00734x elapsed=0:00:49.97    \nframe=   13 fps=0.3 q=35.7 size=     256KiB time=00:00:00.36 bitrate=5720.5kbits/s speed=0.00726x elapsed=0:00:50.50    \nframe=   13 fps=0.3 q=35.7 size=     256KiB time=00:00:00.36 bitrate=5720.5kbits/s speed=0.00718x elapsed=0:00:51.05    \nframe=   13 fps=0.3 q=35.7 size=     256KiB time=00:00:00.36 bitrate=5720.5kbits/s speed=0.00711x elapsed=0:00:51.58    \nframe=   14 fps=0.3 q=38.7 size=     512KiB time=00:00:00.40 bitrate=10486.6kbits/s speed=0.00768x elapsed=0:00:52.08    \nframe=   14 fps=0.3 q=38.7 size=     512KiB time=00:00:00.40 bitrate=10486.6kbits/s speed=0.0076x elapsed=0:00:52.60    \nframe=   14 fps=0.3 q=38.7 size=     512KiB time=00:00:00.40 bitrate=10486.6kbits/s speed=0.00753x elapsed=0:00:53.12    \nframe=   14 fps=0.3 q=38.7 size=     512KiB time=00:00:00.40 bitrate=10486.6kbits/s speed=0.00746x elapsed=0:00:53.65    \nframe=   15 fps=0.3 q=37.7 size=     512KiB time=00:00:00.43 bitrate=9680.0kbits/s speed=0.008x elapsed=0:00:54.18    \nframe=   15 fps=0.3 q=37.7 size=     512KiB time=00:00:00.43 bitrate=9680.0kbits/s speed=0.00792x elapsed=0:00:54.71    \nframe=   16 fps=0.3 q=31.6 size=     512KiB time=00:00:00.46 bitrate=8988.5kbits/s speed=0.00845x elapsed=0:00:55.21    \nframe=   16 fps=0.3 q=31.6 size=     512KiB time=00:00:00.46 bitrate=8988.5kbits/s speed=0.00837x elapsed=0:00:55.72    \nframe=   17 fps=0.3 q=36.5 size=     512KiB time=00:00:00.50 bitrate=8389.3kbits/s speed=0.00889x elapsed=0:00:56.24    \nframe=   17 fps=0.3 q=36.5 size=     512KiB time=00:00:00.50 bitrate=8389.3kbits/s speed=0.00881x elapsed=0:00:56.76    \nframe=   18 fps=0.3 q=37.7 size=     512KiB time=00:00:00.53 bitrate=7865.0kbits/s speed=0.00931x elapsed=0:00:57.28    \nframe=   18 fps=0.3 q=37.7 size=     512KiB time=00:00:00.53 bitrate=7865.0kbits/s speed=0.00923x elapsed=0:00:57.80    \nframe=   18 fps=0.3 q=37.7 size=     512KiB time=00:00:00.53 bitrate=7865.0kbits/s speed=0.00914x elapsed=0:00:58.33    \nframe=   18 fps=0.3 q=37.7 size=     512KiB time=00:00:00.53 bitrate=7865.0kbits/s speed=0.00906x elapsed=0:00:58.85    \nframe=   18 fps=0.3 q=37.7 size=     512KiB time=00:00:00.53 bitrate=7865.0kbits/s speed=0.00898x elapsed=0:00:59.37    \nframe=   18 fps=0.3 q=37.7 size=     512KiB time=00:00:00.53 bitrate=7865.0kbits/s speed=0.0089x elapsed=0:00:59.89    \nframe=   18 fps=0.3 q=37.7 size=     512KiB time=00:00:00.53 bitrate=7865.0kbits/s speed=0.00882x elapsed=0:01:00.44    \nframe=   19 fps=0.3 q=37.6 size=     512KiB time=00:00:00.56 bitrate=7402.3kbits/s speed=0.00929x elapsed=0:01:00.97    \nframe=   19 fps=0.3 q=37.6 size=     512KiB time=00:00:00.56 bitrate=7402.3kbits/s speed=0.00922x elapsed=0:01:01.48    \nframe=   19 fps=0.3 q=37.6 size=     512KiB time=00:00:00.56 bitrate=7402.3kbits/s speed=0.00914x elapsed=0:01:01.99    \nframe=   20 fps=0.3 q=37.8 size=     512KiB time=00:00:00.60 bitrate=6991.1kbits/s speed=0.0096x elapsed=0:01:02.52    \nframe=   20 fps=0.3 q=37.8 size=     512KiB time=00:00:00.60 bitrate=6991.1kbits/s speed=0.00952x elapsed=0:01:03.02    \nframe=   21 fps=0.3 q=31.2 size=     512KiB time=00:00:00.63 bitrate=6623.1kbits/s speed=0.00997x elapsed=0:01:03.55    \nframe=   21 fps=0.3 q=31.2 size=     512KiB time=00:00:00.63 bitrate=6623.1kbits/s speed=0.00989x elapsed=0:01:04.05    \nframe=   21 fps=0.3 q=31.2 size=     512KiB time=00:00:00.63 bitrate=6623.1kbits/s speed=0.00981x elapsed=0:01:04.57    \nframe=   21 fps=0.3 q=31.2 size=     512KiB time=00:00:00.63 bitrate=6623.1kbits/s speed=0.00973x elapsed=0:01:05.10    \nframe=   22 fps=0.3 q=34.4 size=     768KiB time=00:00:00.66 bitrate=9437.7kbits/s speed=0.0102x elapsed=0:01:05.62    \nframe=   22 fps=0.3 q=34.4 size=     768KiB time=00:00:00.66 bitrate=9437.7kbits/s speed=0.0101x elapsed=0:01:06.14    \nframe=   22 fps=0.3 q=34.4 size=     768KiB time=00:00:00.66 bitrate=9437.7kbits/s speed=0.01x elapsed=0:01:06.67    \nframe=   22 fps=0.3 q=34.4 size=     768KiB time=00:00:00.66 bitrate=9437.7kbits/s speed=0.00992x elapsed=0:01:07.18    \nframe=   23 fps=0.3 q=37.9 size=     768KiB time=00:00:00.70 bitrate=8988.3kbits/s speed=0.0103x elapsed=0:01:07.71    \nframe=   23 fps=0.3 q=37.9 size=     768KiB time=00:00:00.70 bitrate=8988.3kbits/s speed=0.0103x elapsed=0:01:08.23    \nframe=   23 fps=0.3 q=37.9 size=     768KiB time=00:00:00.70 bitrate=8988.3kbits/s speed=0.0102x elapsed=0:01:08.74    \nframe=   23 fps=0.3 q=37.9 size=     768KiB time=00:00:00.70 bitrate=8988.3kbits/s speed=0.0101x elapsed=0:01:09.26    \nframe=   24 fps=0.3 q=37.7 size=     768KiB time=00:00:00.73 bitrate=8579.7kbits/s speed=0.0105x elapsed=0:01:09.79    \nframe=   24 fps=0.3 q=37.7 size=     768KiB time=00:00:00.73 bitrate=8579.7kbits/s speed=0.0104x elapsed=0:01:10.31    \nframe=   24 fps=0.3 q=37.7 size=     768KiB time=00:00:00.73 bitrate=8579.7kbits/s speed=0.0104x elapsed=0:01:10.82    \nframe=   24 fps=0.3 q=37.7 size=     768KiB time=00:00:00.73 bitrate=8579.7kbits/s speed=0.0103x elapsed=0:01:11.34    \nframe=   25 fps=0.3 q=31.7 size=     768KiB time=00:00:00.76 bitrate=8206.7kbits/s speed=0.0107x elapsed=0:01:11.85    \nframe=   25 fps=0.3 q=31.7 size=     768KiB time=00:00:00.76 bitrate=8206.7kbits/s speed=0.0106x elapsed=0:01:12.37    \nframe=   25 fps=0.3 q=31.7 size=     768KiB time=00:00:00.76 bitrate=8206.7kbits/s speed=0.0105x elapsed=0:01:12.89    \nframe=   26 fps=0.4 q=32.3 size=     768KiB time=00:00:00.80 bitrate=7864.8kbits/s speed=0.0109x elapsed=0:01:13.42    \nframe=   26 fps=0.4 q=32.3 size=     768KiB time=00:00:00.80 bitrate=7864.8kbits/s speed=0.0108x elapsed=0:01:13.93    \nframe=   27 fps=0.4 q=37.7 size=     768KiB time=00:00:00.83 bitrate=7550.2kbits/s speed=0.0112x elapsed=0:01:14.45    \nframe=   27 fps=0.4 q=37.7 size=     768KiB time=00:00:00.83 bitrate=7550.2kbits/s speed=0.0111x elapsed=0:01:14.97    \nframe=   27 fps=0.4 q=37.7 size=     768KiB time=00:00:00.83 bitrate=7550.2kbits/s speed=0.011x elapsed=0:01:15.48    \nframe=   27 fps=0.4 q=37.7 size=     768KiB time=00:00:00.83 bitrate=7550.2kbits/s speed=0.011x elapsed=0:01:15.99    \nframe=   28 fps=0.4 q=37.7 size=     768KiB time=00:00:00.86 bitrate=7259.8kbits/s speed=0.0113x elapsed=0:01:16.52    \nframe=   28 fps=0.4 q=37.7 size=     768KiB time=00:00:00.86 bitrate=7259.8kbits/s speed=0.0112x elapsed=0:01:17.04    \nframe=   28 fps=0.4 q=37.7 size=     768KiB time=00:00:00.86 bitrate=7259.8kbits/s speed=0.0112x elapsed=0:01:17.56    \nframe=   28 fps=0.4 q=37.7 size=     768KiB time=00:00:00.86 bitrate=7259.8kbits/s speed=0.0111x elapsed=0:01:18.09    \nframe=   29 fps=0.4 q=37.6 size=     768KiB time=00:00:00.90 bitrate=6990.9kbits/s speed=0.0114x elapsed=0:01:18.62    \nframe=   29 fps=0.4 q=37.6 size=     768KiB time=00:00:00.90 bitrate=6990.9kbits/s speed=0.0114x elapsed=0:01:19.14    \nframe=   30 fps=0.4 q=31.3 size=     768KiB time=00:00:00.93 bitrate=6741.2kbits/s speed=0.0117x elapsed=0:01:19.66    \nframe=   31 fps=0.4 q=35.1 size=    1024KiB time=00:00:00.96 bitrate=8678.2kbits/s speed=0.0121x elapsed=0:01:20.17    \nframe=   31 fps=0.4 q=35.1 size=    1024KiB time=00:00:00.96 bitrate=8678.2kbits/s speed=0.012x elapsed=0:01:20.70    \nframe=   31 fps=0.4 q=35.1 size=    1024KiB time=00:00:00.96 bitrate=8678.2kbits/s speed=0.0119x elapsed=0:01:21.25    \nframe=   31 fps=0.4 q=35.1 size=    1024KiB time=00:00:00.96 bitrate=8678.2kbits/s speed=0.0118x elapsed=0:01:21.79    \nframe=   31 fps=0.4 q=35.1 size=    1024KiB time=00:00:00.96 bitrate=8678.2kbits/s speed=0.0117x elapsed=0:01:22.33    \nframe=   31 fps=0.4 q=35.1 size=    1024KiB time=00:00:00.96 bitrate=8678.2kbits/s speed=0.0117x elapsed=0:01:22.85    \nframe=   31 fps=0.4 q=35.1 size=    1024KiB time=00:00:00.96 bitrate=8678.2kbits/s speed=0.0116x elapsed=0:01:23.37    \nframe=   32 fps=0.4 q=37.8 size=    1024KiB time=00:00:01.00 bitrate=8389.0kbits/s speed=0.0119x elapsed=0:01:23.92    \nframe=   32 fps=0.4 q=37.8 size=    1024KiB time=00:00:01.00 bitrate=8389.0kbits/s speed=0.0118x elapsed=0:01:24.43    \nframe=   32 fps=0.4 q=37.8 size=    1024KiB time=00:00:01.00 bitrate=8389.0kbits/s speed=0.0118x elapsed=0:01:24.95    \nframe=   32 fps=0.4 q=37.8 size=    1024KiB time=00:00:01.00 bitrate=8389.0kbits/s speed=0.0117x elapsed=0:01:25.47    \nframe=   33 fps=0.4 q=37.8 size=    1024KiB time=00:00:01.03 bitrate=8118.4kbits/s speed=0.012x elapsed=0:01:25.98    \nframe=   33 fps=0.4 q=37.8 size=    1024KiB time=00:00:01.03 bitrate=8118.4kbits/s speed=0.0119x elapsed=0:01:26.50    \nframe=   34 fps=0.4 q=31.7 size=    1024KiB time=00:00:01.06 bitrate=7864.6kbits/s speed=0.0123x elapsed=0:01:27.01    \nframe=   34 fps=0.4 q=31.7 size=    1024KiB time=00:00:01.06 bitrate=7864.6kbits/s speed=0.0122x elapsed=0:01:27.55    \nframe=   35 fps=0.4 q=35.0 size=    1024KiB time=00:00:01.10 bitrate=7626.3kbits/s speed=0.0125x elapsed=0:01:28.07    \nframe=   35 fps=0.4 q=35.0 size=    1024KiB time=00:00:01.10 bitrate=7626.3kbits/s speed=0.0124x elapsed=0:01:28.59    \nframe=   35 fps=0.4 q=35.0 size=    1024KiB time=00:00:01.10 bitrate=7626.3kbits/s speed=0.0123x elapsed=0:01:29.11    \nframe=   36 fps=0.4 q=37.7 size=    1024KiB time=00:00:01.13 bitrate=7402.0kbits/s speed=0.0126x elapsed=0:01:29.64    \nframe=   36 fps=0.4 q=37.7 size=    1024KiB time=00:00:01.13 bitrate=7402.0kbits/s speed=0.0126x elapsed=0:01:30.17    \nframe=   36 fps=0.4 q=37.7 size=    1024KiB time=00:00:01.13 bitrate=7402.0kbits/s speed=0.0125x elapsed=0:01:30.69    \nframe=   36 fps=0.4 q=37.7 size=    1024KiB time=00:00:01.13 bitrate=7402.0kbits/s speed=0.0124x elapsed=0:01:31.20    \nframe=   36 fps=0.4 q=37.7 size=    1024KiB time=00:00:01.13 bitrate=7402.0kbits/s speed=0.0124x elapsed=0:01:31.71    \nframe=   36 fps=0.4 q=37.7 size=    1024KiB time=00:00:01.13 bitrate=7402.0kbits/s speed=0.0123x elapsed=0:01:32.23    \nframe=   37 fps=0.4 q=38.2 size=    1024KiB time=00:00:01.16 bitrate=7190.5kbits/s speed=0.0126x elapsed=0:01:32.76    \nframe=   37 fps=0.4 q=38.2 size=    1024KiB time=00:00:01.16 bitrate=7190.5kbits/s speed=0.0125x elapsed=0:01:33.29    \nframe=   38 fps=0.4 q=38.1 size=    1024KiB time=00:00:01.20 bitrate=6990.8kbits/s speed=0.0128x elapsed=0:01:33.83    \nframe=   38 fps=0.4 q=38.1 size=    1024KiB time=00:00:01.20 bitrate=6990.8kbits/s speed=0.0127x elapsed=0:01:34.34    \nframe=   38 fps=0.4 q=38.1 size=    1024KiB time=00:00:01.20 bitrate=6990.8kbits/s speed=0.0126x elapsed=0:01:34.86    \nframe=   39 fps=0.4 q=31.4 size=    1024KiB time=00:00:01.23 bitrate=6801.9kbits/s speed=0.0129x elapsed=0:01:35.38    \nframe=   39 fps=0.4 q=31.4 size=    1024KiB time=00:00:01.23 bitrate=6801.9kbits/s speed=0.0129x elapsed=0:01:35.92    \nframe=   39 fps=0.4 q=31.4 size=    1024KiB time=00:00:01.23 bitrate=6801.9kbits/s speed=0.0128x elapsed=0:01:36.45    \nframe=   39 fps=0.4 q=31.4 size=    1024KiB time=00:00:01.23 bitrate=6801.9kbits/s speed=0.0127x elapsed=0:01:36.99    \nframe=   40 fps=0.4 q=34.5 size=    1280KiB time=00:00:01.26 bitrate=8278.5kbits/s speed=0.013x elapsed=0:01:37.50    \nframe=   40 fps=0.4 q=34.5 size=    1280KiB time=00:00:01.26 bitrate=8278.5kbits/s speed=0.0129x elapsed=0:01:38.02    \nframe=   40 fps=0.4 q=34.5 size=    1280KiB time=00:00:01.26 bitrate=8278.5kbits/s speed=0.0129x elapsed=0:01:38.55    \nframe=   41 fps=0.4 q=37.8 size=    1280KiB time=00:00:01.30 bitrate=8066.2kbits/s speed=0.0131x elapsed=0:01:39.07    \nframe=   41 fps=0.4 q=37.8 size=    1280KiB time=00:00:01.30 bitrate=8066.2kbits/s speed=0.0131x elapsed=0:01:39.61    \nframe=   42 fps=0.4 q=31.2 size=    1280KiB time=00:00:01.33 bitrate=7864.6kbits/s speed=0.0133x elapsed=0:01:40.12    \nframe=   42 fps=0.4 q=31.2 size=    1280KiB time=00:00:01.33 bitrate=7864.6kbits/s speed=0.0132x elapsed=0:01:40.63    \nframe=   43 fps=0.4 q=34.9 size=    1280KiB time=00:00:01.36 bitrate=7672.8kbits/s speed=0.0135x elapsed=0:01:41.15    \nframe=   43 fps=0.4 q=34.9 size=    1280KiB time=00:00:01.36 bitrate=7672.8kbits/s speed=0.0134x elapsed=0:01:41.68    \nframe=   43 fps=0.4 q=34.9 size=    1280KiB time=00:00:01.36 bitrate=7672.8kbits/s speed=0.0134x elapsed=0:01:42.20    \nframe=   44 fps=0.4 q=37.4 size=    1280KiB time=00:00:01.40 bitrate=7490.1kbits/s speed=0.0136x elapsed=0:01:42.72    \nframe=   44 fps=0.4 q=37.4 size=    1280KiB time=00:00:01.40 bitrate=7490.1kbits/s speed=0.0136x elapsed=0:01:43.23    \nframe=   44 fps=0.4 q=37.4 size=    1280KiB time=00:00:01.40 bitrate=7490.1kbits/s speed=0.0135x elapsed=0:01:43.76    \nframe=   44 fps=0.4 q=37.4 size=    1280KiB time=00:00:01.40 bitrate=7490.1kbits/s speed=0.0134x elapsed=0:01:44.28    \nframe=   44 fps=0.4 q=37.4 size=    1280KiB time=00:00:01.40 bitrate=7490.1kbits/s speed=0.0134x elapsed=0:01:44.80    \nframe=   45 fps=0.4 q=37.6 size=    1280KiB time=00:00:01.43 bitrate=7315.9kbits/s speed=0.0136x elapsed=0:01:45.33    \nframe=   45 fps=0.4 q=37.6 size=    1280KiB time=00:00:01.43 bitrate=7315.9kbits/s speed=0.0135x elapsed=0:01:45.85    \nframe=   45 fps=0.4 q=37.6 size=    1280KiB time=00:00:01.43 bitrate=7315.9kbits/s speed=0.0135x elapsed=0:01:46.37    \nframe=   46 fps=0.4 q=31.7 size=    1280KiB time=00:00:01.46 bitrate=7149.6kbits/s speed=0.0137x elapsed=0:01:46.90    \nframe=   46 fps=0.4 q=31.7 size=    1280KiB time=00:00:01.46 bitrate=7149.6kbits/s speed=0.0136x elapsed=0:01:47.48    \nframe=   46 fps=0.4 q=31.7 size=    1280KiB time=00:00:01.46 bitrate=7149.6kbits/s speed=0.0136x elapsed=0:01:48.03    \nframe=   46 fps=0.4 q=31.7 size=    1280KiB time=00:00:01.46 bitrate=7149.6kbits/s speed=0.0135x elapsed=0:01:48.60    \nframe=   46 fps=0.4 q=31.7 size=    1280KiB time=00:00:01.46 bitrate=7149.6kbits/s speed=0.0134x elapsed=0:01:49.18    \nframe=   46 fps=0.4 q=31.7 size=    1280KiB time=00:00:01.46 bitrate=7149.6kbits/s speed=0.0134x elapsed=0:01:49.78    \nframe=   46 fps=0.4 q=31.7 size=    1280KiB time=00:00:01.46 bitrate=7149.6kbits/s speed=0.0133x elapsed=0:01:50.36    \nframe=   47 fps=0.4 q=35.9 size=    1536KiB time=00:00:01.50 bitrate=8388.8kbits/s speed=0.0135x elapsed=0:01:50.89    \nframe=   47 fps=0.4 q=35.9 size=    1536KiB time=00:00:01.50 bitrate=8388.8kbits/s speed=0.0135x elapsed=0:01:51.42    \nframe=   47 fps=0.4 q=35.9 size=    1536KiB time=00:00:01.50 bitrate=8388.8kbits/s speed=0.0134x elapsed=0:01:51.99    \nframe=   47 fps=0.4 q=35.9 size=    1536KiB time=00:00:01.50 bitrate=8388.8kbits/s speed=0.0133x elapsed=0:01:52.57    \nframe=   47 fps=0.4 q=35.9 size=    1536KiB time=00:00:01.50 bitrate=8388.8kbits/s speed=0.0133x elapsed=0:01:53.10    \nframe=   48 fps=0.4 q=37.4 size=    1536KiB time=00:00:01.53 bitrate=8206.5kbits/s speed=0.0135x elapsed=0:01:53.64    \nframe=   48 fps=0.4 q=37.4 size=    1536KiB time=00:00:01.53 bitrate=8206.5kbits/s speed=0.0134x elapsed=0:01:54.15    \nframe=   48 fps=0.4 q=37.4 size=    1536KiB time=00:00:01.53 bitrate=8206.5kbits/s speed=0.0134x elapsed=0:01:54.67    \nframe=   48 fps=0.4 q=37.4 size=    1536KiB time=00:00:01.53 bitrate=8206.5kbits/s speed=0.0133x elapsed=0:01:55.20    \nframe=   49 fps=0.4 q=37.8 size=    1536KiB time=00:00:01.56 bitrate=8031.9kbits/s speed=0.0135x elapsed=0:01:55.72    \nframe=   49 fps=0.4 q=37.8 size=    1536KiB time=00:00:01.56 bitrate=8031.9kbits/s speed=0.0135x elapsed=0:01:56.24    \nframe=   49 fps=0.4 q=37.8 size=    1536KiB time=00:00:01.56 bitrate=8031.9kbits/s speed=0.0134x elapsed=0:01:56.81    \nframe=   49 fps=0.4 q=37.8 size=    1536KiB time=00:00:01.56 bitrate=8031.9kbits/s speed=0.0134x elapsed=0:01:57.34    \nframe=   49 fps=0.4 q=37.8 size=    1536KiB time=00:00:01.56 bitrate=8031.9kbits/s speed=0.0133x elapsed=0:01:57.88    \nframe=   49 fps=0.4 q=37.8 size=    1536KiB time=00:00:01.56 bitrate=8031.9kbits/s speed=0.0132x elapsed=0:01:58.45    \nframe=   49 fps=0.4 q=37.8 size=    1536KiB time=00:00:01.56 bitrate=8031.9kbits/s speed=0.0132x elapsed=0:01:58.97    \nframe=   49 fps=0.4 q=37.8 size=    1536KiB time=00:00:01.56 bitrate=8031.9kbits/s speed=0.0131x elapsed=0:01:59.51    \nframe=   49 fps=0.4 q=37.8 size=    1536KiB time=00:00:01.56 bitrate=8031.9kbits/s speed=0.0131x elapsed=0:02:00.04    \nframe=   49 fps=0.4 q=37.8 size=    1536KiB time=00:00:01.56 bitrate=8031.9kbits/s speed=0.013x elapsed=0:02:00.57    \nframe=   50 fps=0.4 q=37.7 size=    1536KiB time=00:00:01.60 bitrate=7864.5kbits/s speed=0.0132x elapsed=0:02:01.11    \nframe=   50 fps=0.4 q=37.7 size=    1536KiB time=00:00:01.60 bitrate=7864.5kbits/s speed=0.0131x elapsed=0:02:01.68    \nframe=   50 fps=0.4 q=37.7 size=    1536KiB time=00:00:01.60 bitrate=7864.5kbits/s speed=0.0131x elapsed=0:02:02.21    \nframe=   51 fps=0.4 q=31.6 size=    1536KiB time=00:00:01.63 bitrate=7704.0kbits/s speed=0.0133x elapsed=0:02:02.74    \nframe=   51 fps=0.4 q=31.6 size=    1536KiB time=00:00:01.63 bitrate=7704.0kbits/s speed=0.0132x elapsed=0:02:03.27    \nframe=   51 fps=0.4 q=31.6 size=    1536KiB time=00:00:01.63 bitrate=7704.0kbits/s speed=0.0132x elapsed=0:02:03.79    \nframe=   51 fps=0.4 q=31.6 size=    1536KiB time=00:00:01.63 bitrate=7704.0kbits/s speed=0.0131x elapsed=0:02:04.32    \nframe=   51 fps=0.4 q=31.6 size=    1536KiB time=00:00:01.63 bitrate=7704.0kbits/s speed=0.0131x elapsed=0:02:04.84    \nframe=   51 fps=0.4 q=31.6 size=    1536KiB time=00:00:01.63 bitrate=7704.0kbits/s speed=0.013x elapsed=0:02:05.36    \nframe=   52 fps=0.4 q=34.9 size=    1536KiB time=00:00:01.66 bitrate=7550.0kbits/s speed=0.0132x elapsed=0:02:05.92    \nframe=   52 fps=0.4 q=34.9 size=    1536KiB time=00:00:01.66 bitrate=7550.0kbits/s speed=0.0132x elapsed=0:02:06.46    \nframe=   52 fps=0.4 q=34.9 size=    1536KiB time=00:00:01.66 bitrate=7550.0kbits/s speed=0.0131x elapsed=0:02:07.02    \nframe=   52 fps=0.4 q=34.9 size=    1536KiB time=00:00:01.66 bitrate=7550.0kbits/s speed=0.0131x elapsed=0:02:07.56    \nframe=   52 fps=0.4 q=34.9 size=    1536KiB time=00:00:01.66 bitrate=7550.0kbits/s speed=0.013x elapsed=0:02:08.11    \nframe=   53 fps=0.4 q=37.6 size=    1536KiB time=00:00:01.70 bitrate=7401.9kbits/s speed=0.0132x elapsed=0:02:08.65    \nframe=   53 fps=0.4 q=37.6 size=    1536KiB time=00:00:01.70 bitrate=7401.9kbits/s speed=0.0132x elapsed=0:02:09.16    \nframe=   53 fps=0.4 q=37.6 size=    1536KiB time=00:00:01.70 bitrate=7401.9kbits/s speed=0.0131x elapsed=0:02:09.69    \nframe=   53 fps=0.4 q=37.6 size=    1536KiB time=00:00:01.70 bitrate=7401.9kbits/s speed=0.0131x elapsed=0:02:10.23    \nframe=   53 fps=0.4 q=37.6 size=    1536KiB time=00:00:01.70 bitrate=7401.9kbits/s speed=0.013x elapsed=0:02:10.76    \nframe=   54 fps=0.4 q=31.6 size=    1536KiB time=00:00:01.73 bitrate=7259.6kbits/s speed=0.0132x elapsed=0:02:11.28    \nframe=   54 fps=0.4 q=31.6 size=    1536KiB time=00:00:01.73 bitrate=7259.6kbits/s speed=0.0131x elapsed=0:02:11.81    \nframe=   54 fps=0.4 q=31.6 size=    1536KiB time=00:00:01.73 bitrate=7259.6kbits/s speed=0.0131x elapsed=0:02:12.36    \nframe=   54 fps=0.4 q=31.6 size=    1536KiB time=00:00:01.73 bitrate=7259.6kbits/s speed=0.013x elapsed=0:02:12.90    \nframe=   54 fps=0.4 q=31.6 size=    1536KiB time=00:00:01.73 bitrate=7259.6kbits/s speed=0.013x elapsed=0:02:13.41    \nframe=   55 fps=0.4 q=36.4 size=    1536KiB time=00:00:01.76 bitrate=7122.6kbits/s speed=0.0132x elapsed=0:02:13.94    \nframe=   55 fps=0.4 q=36.4 size=    1536KiB time=00:00:01.76 bitrate=7122.6kbits/s speed=0.0131x elapsed=0:02:14.48    \nframe=   55 fps=0.4 q=36.4 size=    1536KiB time=00:00:01.76 bitrate=7122.6kbits/s speed=0.0131x elapsed=0:02:15.04    \nframe=   55 fps=0.4 q=36.4 size=    1536KiB time=00:00:01.76 bitrate=7122.6kbits/s speed=0.013x elapsed=0:02:15.57    \nframe=   56 fps=0.4 q=37.6 size=    1792KiB time=00:00:01.80 bitrate=8155.8kbits/s speed=0.0132x elapsed=0:02:16.10    \nframe=   56 fps=0.4 q=37.6 size=    1792KiB time=00:00:01.80 bitrate=8155.8kbits/s speed=0.0132x elapsed=0:02:16.63    \nframe=   56 fps=0.4 q=37.6 size=    1792KiB time=00:00:01.80 bitrate=8155.8kbits/s speed=0.0131x elapsed=0:02:17.17    \nframe=   57 fps=0.4 q=31.6 size=    1792KiB time=00:00:01.83 bitrate=8007.5kbits/s speed=0.0133x elapsed=0:02:17.69    \nframe=   57 fps=0.4 q=31.6 size=    1792KiB time=00:00:01.83 bitrate=8007.5kbits/s speed=0.0133x elapsed=0:02:18.23    \nframe=   57 fps=0.4 q=31.6 size=    1792KiB time=00:00:01.83 bitrate=8007.5kbits/s speed=0.0132x elapsed=0:02:18.80    \nframe=   57 fps=0.4 q=31.6 size=    1792KiB time=00:00:01.83 bitrate=8007.5kbits/s speed=0.0132x elapsed=0:02:19.39    \nframe=   57 fps=0.4 q=31.6 size=    1792KiB time=00:00:01.83 bitrate=8007.5kbits/s speed=0.0131x elapsed=0:02:20.00    \nframe=   57 fps=0.4 q=31.6 size=    1792KiB time=00:00:01.83 bitrate=8007.5kbits/s speed=0.013x elapsed=0:02:20.58    \nframe=   57 fps=0.4 q=31.6 size=    1792KiB time=00:00:01.83 bitrate=8007.5kbits/s speed=0.013x elapsed=0:02:21.13    \nframe=   57 fps=0.4 q=31.6 size=    1792KiB time=00:00:01.83 bitrate=8007.5kbits/s speed=0.0129x elapsed=0:02:21.72    \nframe=   58 fps=0.4 q=35.0 size=    1792KiB time=00:00:01.86 bitrate=7864.5kbits/s speed=0.0131x elapsed=0:02:22.29    \nframe=   58 fps=0.4 q=35.0 size=    1792KiB time=00:00:01.86 bitrate=7864.5kbits/s speed=0.0131x elapsed=0:02:22.86    \nframe=   58 fps=0.4 q=35.0 size=    1792KiB time=00:00:01.86 bitrate=7864.5kbits/s speed=0.013x elapsed=0:02:23.38    \nframe=   58 fps=0.4 q=35.0 size=    1792KiB time=00:00:01.86 bitrate=7864.5kbits/s speed=0.013x elapsed=0:02:23.91    \nframe=   58 fps=0.4 q=35.0 size=    1792KiB time=00:00:01.86 bitrate=7864.5kbits/s speed=0.0129x elapsed=0:02:24.41    \nframe=   58 fps=0.4 q=35.0 size=    1792KiB time=00:00:01.86 bitrate=7864.5kbits/s speed=0.0129x elapsed=0:02:24.93    \nframe=   59 fps=0.4 q=38.0 size=    1792KiB time=00:00:01.90 bitrate=7726.5kbits/s speed=0.0131x elapsed=0:02:25.46    \nframe=   59 fps=0.4 q=38.0 size=    1792KiB time=00:00:01.90 bitrate=7726.5kbits/s speed=0.013x elapsed=0:02:25.98    \nframe=   60 fps=0.4 q=37.6 size=    1792KiB time=00:00:01.93 bitrate=7593.3kbits/s speed=0.0132x elapsed=0:02:26.49    \nframe=   60 fps=0.4 q=37.6 size=    1792KiB time=00:00:01.93 bitrate=7593.3kbits/s speed=0.0131x elapsed=0:02:27.03    \nframe=   61 fps=0.4 q=32.3 size=    1792KiB time=00:00:01.96 bitrate=7464.6kbits/s speed=0.0133x elapsed=0:02:27.55    \nframe=   61 fps=0.4 q=32.3 size=    1792KiB time=00:00:01.96 bitrate=7464.6kbits/s speed=0.0133x elapsed=0:02:28.06    \nframe=   61 fps=0.4 q=32.3 size=    1792KiB time=00:00:01.96 bitrate=7464.6kbits/s speed=0.0132x elapsed=0:02:28.59    \nframe=   62 fps=0.4 q=34.6 size=    1792KiB time=00:00:02.00 bitrate=7340.2kbits/s speed=0.0134x elapsed=0:02:29.11    \nframe=   63 fps=0.4 q=37.7 size=    2048KiB time=00:00:02.03 bitrate=8251.3kbits/s speed=0.0136x elapsed=0:02:29.64    \nframe=   63 fps=0.4 q=37.7 size=    2048KiB time=00:00:02.03 bitrate=8251.3kbits/s speed=0.0135x elapsed=0:02:30.15    \nframe=   64 fps=0.4 q=37.6 size=    2048KiB time=00:00:02.06 bitrate=8118.2kbits/s speed=0.0137x elapsed=0:02:30.66    \nframe=   64 fps=0.4 q=37.6 size=    2048KiB time=00:00:02.06 bitrate=8118.2kbits/s speed=0.0137x elapsed=0:02:31.18    \nframe=   64 fps=0.4 q=37.6 size=    2048KiB time=00:00:02.06 bitrate=8118.2kbits/s speed=0.0136x elapsed=0:02:31.70    \nframe=   64 fps=0.4 q=37.6 size=    2048KiB time=00:00:02.06 bitrate=8118.2kbits/s speed=0.0136x elapsed=0:02:32.23    \nframe=   65 fps=0.4 q=38.1 size=    2048KiB time=00:00:02.10 bitrate=7989.3kbits/s speed=0.0137x elapsed=0:02:32.76    \nframe=   65 fps=0.4 q=38.1 size=    2048KiB time=00:00:02.10 bitrate=7989.3kbits/s speed=0.0137x elapsed=0:02:33.27    \nframe=   66 fps=0.4 q=31.7 size=    2048KiB time=00:00:02.13 bitrate=7864.5kbits/s speed=0.0139x elapsed=0:02:33.79    \nframe=   66 fps=0.4 q=31.7 size=    2048KiB time=00:00:02.13 bitrate=7864.5kbits/s speed=0.0138x elapsed=0:02:34.31    \nframe=   66 fps=0.4 q=31.7 size=    2048KiB time=00:00:02.13 bitrate=7864.5kbits/s speed=0.0138x elapsed=0:02:34.83    \nframe=   67 fps=0.4 q=32.1 size=    2048KiB time=00:00:02.16 bitrate=7743.5kbits/s speed=0.0139x elapsed=0:02:35.35    \nframe=   68 fps=0.4 q=36.2 size=    2048KiB time=00:00:02.20 bitrate=7626.2kbits/s speed=0.0141x elapsed=0:02:35.87    \nframe=   69 fps=0.4 q=37.6 size=    2048KiB time=00:00:02.23 bitrate=7512.3kbits/s speed=0.0143x elapsed=0:02:36.40    \nframe=   69 fps=0.4 q=37.6 size=    2048KiB time=00:00:02.23 bitrate=7512.3kbits/s speed=0.0142x elapsed=0:02:36.94    \nframe=   70 fps=0.4 q=37.8 size=    2048KiB time=00:00:02.26 bitrate=7401.9kbits/s speed=0.0144x elapsed=0:02:37.47    \nframe=   70 fps=0.4 q=37.8 size=    2048KiB time=00:00:02.26 bitrate=7401.9kbits/s speed=0.0143x elapsed=0:02:37.97    \nframe=   70 fps=0.4 q=37.8 size=    2048KiB time=00:00:02.26 bitrate=7401.9kbits/s speed=0.0143x elapsed=0:02:38.50    \nframe=   70 fps=0.4 q=37.8 size=    2048KiB time=00:00:02.26 bitrate=7401.9kbits/s speed=0.0143x elapsed=0:02:39.03    \nframe=   70 fps=0.4 q=37.8 size=    2048KiB time=00:00:02.26 bitrate=7401.9kbits/s speed=0.0142x elapsed=0:02:39.54    \nframe=   70 fps=0.4 q=37.8 size=    2048KiB time=00:00:02.26 bitrate=7401.9kbits/s speed=0.0142x elapsed=0:02:40.06    \nframe=   70 fps=0.4 q=37.8 size=    2048KiB time=00:00:02.26 bitrate=7401.9kbits/s speed=0.0141x elapsed=0:02:40.60    \nframe=   71 fps=0.4 q=37.7 size=    2048KiB time=00:00:02.30 bitrate=7294.6kbits/s speed=0.0143x elapsed=0:02:41.10    \nframe=   72 fps=0.4 q=31.8 size=    2048KiB time=00:00:02.33 bitrate=7190.4kbits/s speed=0.0144x elapsed=0:02:41.63    \nframe=   72 fps=0.4 q=31.8 size=    2048KiB time=00:00:02.33 bitrate=7190.4kbits/s speed=0.0144x elapsed=0:02:42.14    \nframe=   72 fps=0.4 q=31.8 size=    2048KiB time=00:00:02.33 bitrate=7190.4kbits/s speed=0.0143x elapsed=0:02:42.68    \nframe=   73 fps=0.4 q=34.9 size=    2304KiB time=00:00:02.36 bitrate=7975.2kbits/s speed=0.0145x elapsed=0:02:43.20    \nframe=   73 fps=0.4 q=34.9 size=    2304KiB time=00:00:02.36 bitrate=7975.2kbits/s speed=0.0145x elapsed=0:02:43.73    \nframe=   73 fps=0.4 q=34.9 size=    2304KiB time=00:00:02.36 bitrate=7975.2kbits/s speed=0.0144x elapsed=0:02:44.25    \nframe=   73 fps=0.4 q=34.9 size=    2304KiB time=00:00:02.36 bitrate=7975.2kbits/s speed=0.0144x elapsed=0:02:44.78    \nframe=   73 fps=0.4 q=34.9 size=    2304KiB time=00:00:02.36 bitrate=7975.2kbits/s speed=0.0143x elapsed=0:02:45.30    \nframe=   74 fps=0.4 q=37.5 size=    2304KiB time=00:00:02.40 bitrate=7864.5kbits/s speed=0.0145x elapsed=0:02:45.83    \nframe=   74 fps=0.4 q=37.5 size=    2304KiB time=00:00:02.40 bitrate=7864.5kbits/s speed=0.0144x elapsed=0:02:46.36    \nframe=   74 fps=0.4 q=37.5 size=    2304KiB time=00:00:02.40 bitrate=7864.5kbits/s speed=0.0144x elapsed=0:02:46.88    \nframe=   75 fps=0.4 q=37.8 size=    2304KiB time=00:00:02.43 bitrate=7756.7kbits/s speed=0.0145x elapsed=0:02:47.40    \nframe=   75 fps=0.4 q=37.8 size=    2304KiB time=00:00:02.43 bitrate=7756.7kbits/s speed=0.0145x elapsed=0:02:47.92    \nframe=   75 fps=0.4 q=37.8 size=    2304KiB time=00:00:02.43 bitrate=7756.7kbits/s speed=0.0144x elapsed=0:02:48.45    \nframe=   76 fps=0.4 q=32.0 size=    2304KiB time=00:00:02.46 bitrate=7651.9kbits/s speed=0.0146x elapsed=0:02:48.97    \nframe=   76 fps=0.4 q=32.0 size=    2304KiB time=00:00:02.46 bitrate=7651.9kbits/s speed=0.0146x elapsed=0:02:49.50    \nframe=   76 fps=0.4 q=32.0 size=    2304KiB time=00:00:02.46 bitrate=7651.9kbits/s speed=0.0145x elapsed=0:02:50.01    \nframe=   77 fps=0.5 q=34.7 size=    2304KiB time=00:00:02.50 bitrate=7549.9kbits/s speed=0.0147x elapsed=0:02:50.53    \nframe=   77 fps=0.5 q=34.7 size=    2304KiB time=00:00:02.50 bitrate=7549.9kbits/s speed=0.0146x elapsed=0:02:51.07    \nframe=   78 fps=0.5 q=38.1 size=    2304KiB time=00:00:02.53 bitrate=7450.5kbits/s speed=0.0148x elapsed=0:02:51.60    \nframe=   78 fps=0.5 q=38.1 size=    2304KiB time=00:00:02.53 bitrate=7450.5kbits/s speed=0.0147x elapsed=0:02:52.18    \nframe=   78 fps=0.5 q=38.1 size=    2304KiB time=00:00:02.53 bitrate=7450.5kbits/s speed=0.0147x elapsed=0:02:52.71    \nframe=   78 fps=0.5 q=38.1 size=    2304KiB time=00:00:02.53 bitrate=7450.5kbits/s speed=0.0146x elapsed=0:02:53.25    \nframe=   78 fps=0.4 q=38.1 size=    2304KiB time=00:00:02.53 bitrate=7450.5kbits/s speed=0.0146x elapsed=0:02:53.82    \nframe=   78 fps=0.4 q=38.1 size=    2304KiB time=00:00:02.53 bitrate=7450.5kbits/s speed=0.0145x elapsed=0:02:54.35    \nframe=   78 fps=0.4 q=38.1 size=    2304KiB time=00:00:02.53 bitrate=7450.5kbits/s speed=0.0145x elapsed=0:02:54.88    \nframe=   78 fps=0.4 q=38.1 size=    2304KiB time=00:00:02.53 bitrate=7450.5kbits/s speed=0.0144x elapsed=0:02:55.40    \nframe=   78 fps=0.4 q=38.1 size=    2304KiB time=00:00:02.53 bitrate=7450.5kbits/s speed=0.0144x elapsed=0:02:55.92    \nframe=   79 fps=0.4 q=37.9 size=    2560KiB time=00:00:02.56 bitrate=8170.9kbits/s speed=0.0145x elapsed=0:02:56.49    \nframe=   79 fps=0.4 q=37.9 size=    2560KiB time=00:00:02.56 bitrate=8170.9kbits/s speed=0.0145x elapsed=0:02:57.02    \nframe=   79 fps=0.4 q=37.9 size=    2560KiB time=00:00:02.56 bitrate=8170.9kbits/s speed=0.0145x elapsed=0:02:57.58    \nframe=   79 fps=0.4 q=37.9 size=    2560KiB time=00:00:02.56 bitrate=8170.9kbits/s speed=0.0144x elapsed=0:02:58.14    \nframe=   80 fps=0.4 q=38.0 size=    2560KiB time=00:00:02.60 bitrate=8066.1kbits/s speed=0.0145x elapsed=0:02:58.70    \nframe=   80 fps=0.4 q=38.0 size=    2560KiB time=00:00:02.60 bitrate=8066.1kbits/s speed=0.0145x elapsed=0:02:59.23    \nframe=   80 fps=0.4 q=38.0 size=    2560KiB time=00:00:02.60 bitrate=8066.1kbits/s speed=0.0145x elapsed=0:02:59.77    \nframe=   80 fps=0.4 q=38.0 size=    2560KiB time=00:00:02.60 bitrate=8066.1kbits/s speed=0.0144x elapsed=0:03:00.28    \nframe=   80 fps=0.4 q=38.0 size=    2560KiB time=00:00:02.60 bitrate=8066.1kbits/s speed=0.0144x elapsed=0:03:00.88    \nframe=   80 fps=0.4 q=38.0 size=    2560KiB time=00:00:02.60 bitrate=8066.1kbits/s speed=0.0143x elapsed=0:03:01.47    \nframe=   80 fps=0.4 q=38.0 size=    2560KiB time=00:00:02.60 bitrate=8066.1kbits/s speed=0.0143x elapsed=0:03:02.11    \nframe=   80 fps=0.4 q=38.0 size=    2560KiB time=00:00:02.60 bitrate=8066.1kbits/s speed=0.0142x elapsed=0:03:02.73    \nframe=   80 fps=0.4 q=38.0 size=    2560KiB time=00:00:02.60 bitrate=8066.1kbits/s speed=0.0142x elapsed=0:03:03.30    \nframe=   80 fps=0.4 q=38.0 size=    2560KiB time=00:00:02.60 bitrate=8066.1kbits/s speed=0.0141x elapsed=0:03:03.85    \nframe=   80 fps=0.4 q=38.0 size=    2560KiB time=00:00:02.60 bitrate=8066.1kbits/s speed=0.0141x elapsed=0:03:04.41    \nframe=   81 fps=0.4 q=31.9 size=    2560KiB time=00:00:02.63 bitrate=7964.0kbits/s speed=0.0142x elapsed=0:03:04.95    \nframe=   81 fps=0.4 q=31.9 size=    2560KiB time=00:00:02.63 bitrate=7964.0kbits/s speed=0.0142x elapsed=0:03:05.46    \nframe=   81 fps=0.4 q=31.9 size=    2560KiB time=00:00:02.63 bitrate=7964.0kbits/s speed=0.0142x elapsed=0:03:06.00    \nframe=   82 fps=0.4 q=35.2 size=    2560KiB time=00:00:02.66 bitrate=7864.5kbits/s speed=0.0143x elapsed=0:03:06.54    \nframe=   82 fps=0.4 q=35.2 size=    2560KiB time=00:00:02.66 bitrate=7864.5kbits/s speed=0.0143x elapsed=0:03:07.05    \nframe=   82 fps=0.4 q=35.2 size=    2560KiB time=00:00:02.66 bitrate=7864.5kbits/s speed=0.0142x elapsed=0:03:07.57    \nframe=   83 fps=0.4 q=38.1 size=    2560KiB time=00:00:02.70 bitrate=7767.4kbits/s speed=0.0144x elapsed=0:03:08.10    \nframe=   83 fps=0.4 q=38.1 size=    2560KiB time=00:00:02.70 bitrate=7767.4kbits/s speed=0.0143x elapsed=0:03:08.64    \nframe=   83 fps=0.4 q=38.1 size=    2560KiB time=00:00:02.70 bitrate=7767.4kbits/s speed=0.0143x elapsed=0:03:09.19    \nframe=   83 fps=0.4 q=38.1 size=    2560KiB time=00:00:02.70 bitrate=7767.4kbits/s speed=0.0142x elapsed=0:03:09.72    \nframe=   84 fps=0.4 q=38.0 size=    2560KiB time=00:00:02.73 bitrate=7672.6kbits/s speed=0.0144x elapsed=0:03:10.23    \nframe=   84 fps=0.4 q=38.0 size=    2560KiB time=00:00:02.73 bitrate=7672.6kbits/s speed=0.0143x elapsed=0:03:10.74    \nframe=   84 fps=0.4 q=38.0 size=    2560KiB time=00:00:02.73 bitrate=7672.6kbits/s speed=0.0143x elapsed=0:03:11.28    \nframe=   85 fps=0.4 q=32.3 size=    2560KiB time=00:00:02.76 bitrate=7580.2kbits/s speed=0.0144x elapsed=0:03:11.80    \nframe=   85 fps=0.4 q=32.3 size=    2560KiB time=00:00:02.76 bitrate=7580.2kbits/s speed=0.0144x elapsed=0:03:12.32    \nframe=   86 fps=0.4 q=32.9 size=    2816KiB time=00:00:02.80 bitrate=8238.9kbits/s speed=0.0145x elapsed=0:03:12.84    \nframe=   86 fps=0.4 q=32.9 size=    2816KiB time=00:00:02.80 bitrate=8238.9kbits/s speed=0.0145x elapsed=0:03:13.38    \nframe=   86 fps=0.4 q=32.9 size=    2816KiB time=00:00:02.80 bitrate=8238.9kbits/s speed=0.0144x elapsed=0:03:13.90    \nframe=   87 fps=0.4 q=38.3 size=    2816KiB time=00:00:02.83 bitrate=8142.0kbits/s speed=0.0146x elapsed=0:03:14.41    \nframe=   87 fps=0.4 q=38.3 size=    2816KiB time=00:00:02.83 bitrate=8142.0kbits/s speed=0.0145x elapsed=0:03:14.93    \nframe=   88 fps=0.5 q=38.1 size=    2816KiB time=00:00:02.86 bitrate=8047.3kbits/s speed=0.0147x elapsed=0:03:15.45    \nframe=   88 fps=0.4 q=38.1 size=    2816KiB time=00:00:02.86 bitrate=8047.3kbits/s speed=0.0146x elapsed=0:03:15.96    \nframe=   88 fps=0.4 q=38.1 size=    2816KiB time=00:00:02.86 bitrate=8047.3kbits/s speed=0.0146x elapsed=0:03:16.50    \nframe=   89 fps=0.5 q=38.2 size=    2816KiB time=00:00:02.90 bitrate=7954.8kbits/s speed=0.0147x elapsed=0:03:17.03    \nframe=   89 fps=0.5 q=38.2 size=    2816KiB time=00:00:02.90 bitrate=7954.8kbits/s speed=0.0147x elapsed=0:03:17.55    \nframe=   89 fps=0.4 q=38.2 size=    2816KiB time=00:00:02.90 bitrate=7954.8kbits/s speed=0.0146x elapsed=0:03:18.06    \nframe=   90 fps=0.5 q=31.9 size=    2816KiB time=00:00:02.93 bitrate=7864.4kbits/s speed=0.0148x elapsed=0:03:18.58    \nframe=   90 fps=0.5 q=31.9 size=    2816KiB time=00:00:02.93 bitrate=7864.4kbits/s speed=0.0147x elapsed=0:03:19.09    \nframe=   90 fps=0.5 q=31.9 size=    2816KiB time=00:00:02.93 bitrate=7864.4kbits/s speed=0.0147x elapsed=0:03:19.60    \nframe=   91 fps=0.5 q=35.4 size=    2816KiB time=00:00:02.96 bitrate=7776.1kbits/s speed=0.0148x elapsed=0:03:20.12    \nframe=   91 fps=0.5 q=35.4 size=    2816KiB time=00:00:02.96 bitrate=7776.1kbits/s speed=0.0148x elapsed=0:03:20.65    \nframe=   92 fps=0.5 q=38.0 size=    2816KiB time=00:00:03.00 bitrate=7689.7kbits/s speed=0.0149x elapsed=0:03:21.18    \nframe=   92 fps=0.5 q=38.0 size=    2816KiB time=00:00:03.00 bitrate=7689.7kbits/s speed=0.0149x elapsed=0:03:21.75    \nframe=   92 fps=0.5 q=38.0 size=    2816KiB time=00:00:03.00 bitrate=7689.7kbits/s speed=0.0148x elapsed=0:03:22.31    \nframe=   92 fps=0.5 q=38.0 size=    2816KiB time=00:00:03.00 bitrate=7689.7kbits/s speed=0.0148x elapsed=0:03:22.92    \nframe=   92 fps=0.5 q=38.0 size=    2816KiB time=00:00:03.00 bitrate=7689.7kbits/s speed=0.0147x elapsed=0:03:23.47    \nframe=   92 fps=0.5 q=38.0 size=    2816KiB time=00:00:03.00 bitrate=7689.7kbits/s speed=0.0147x elapsed=0:03:23.98    \nframe=   92 fps=0.4 q=38.0 size=    2816KiB time=00:00:03.00 bitrate=7689.7kbits/s speed=0.0147x elapsed=0:03:24.54    \nframe=   92 fps=0.4 q=38.0 size=    2816KiB time=00:00:03.00 bitrate=7689.7kbits/s speed=0.0146x elapsed=0:03:25.07    \nframe=   92 fps=0.4 q=38.0 size=    2816KiB time=00:00:03.00 bitrate=7689.7kbits/s speed=0.0146x elapsed=0:03:25.60    \nframe=   93 fps=0.5 q=38.2 size=    2816KiB time=00:00:03.03 bitrate=7605.2kbits/s speed=0.0147x elapsed=0:03:26.16    \nframe=   93 fps=0.4 q=38.2 size=    2816KiB time=00:00:03.03 bitrate=7605.2kbits/s speed=0.0147x elapsed=0:03:26.68    \nframe=   93 fps=0.4 q=38.2 size=    2816KiB time=00:00:03.03 bitrate=7605.2kbits/s speed=0.0146x elapsed=0:03:27.20    \nframe=   94 fps=0.5 q=32.2 size=    2816KiB time=00:00:03.06 bitrate=7522.5kbits/s speed=0.0148x elapsed=0:03:27.78    \nframe=   95 fps=0.5 q=35.2 size=    3072KiB time=00:00:03.10 bitrate=8118.1kbits/s speed=0.0149x elapsed=0:03:28.32    \nframe=   95 fps=0.5 q=35.2 size=    3072KiB time=00:00:03.10 bitrate=8118.1kbits/s speed=0.0148x elapsed=0:03:28.85    \nframe=   95 fps=0.5 q=35.2 size=    3072KiB time=00:00:03.10 bitrate=8118.1kbits/s speed=0.0148x elapsed=0:03:29.35    \nframe=   96 fps=0.5 q=38.0 size=    3072KiB time=00:00:03.13 bitrate=8031.8kbits/s speed=0.0149x elapsed=0:03:29.87    \nframe=   96 fps=0.5 q=38.0 size=    3072KiB time=00:00:03.13 bitrate=8031.8kbits/s speed=0.0149x elapsed=0:03:30.40    \nframe=   96 fps=0.5 q=38.0 size=    3072KiB time=00:00:03.13 bitrate=8031.8kbits/s speed=0.0149x elapsed=0:03:30.93    \nframe=   96 fps=0.5 q=38.0 size=    3072KiB time=00:00:03.13 bitrate=8031.8kbits/s speed=0.0148x elapsed=0:03:31.45    \nframe=   96 fps=0.5 q=38.0 size=    3072KiB time=00:00:03.13 bitrate=8031.8kbits/s speed=0.0148x elapsed=0:03:31.99    \nframe=   96 fps=0.5 q=38.0 size=    3072KiB time=00:00:03.13 bitrate=8031.8kbits/s speed=0.0147x elapsed=0:03:32.53    \nframe=   96 fps=0.5 q=38.0 size=    3072KiB time=00:00:03.13 bitrate=8031.8kbits/s speed=0.0147x elapsed=0:03:33.06    \nframe=   96 fps=0.4 q=38.0 size=    3072KiB time=00:00:03.13 bitrate=8031.8kbits/s speed=0.0147x elapsed=0:03:33.63    \nframe=   97 fps=0.5 q=38.2 size=    3072KiB time=00:00:03.16 bitrate=7947.2kbits/s speed=0.0148x elapsed=0:03:34.13    \nframe=   97 fps=0.5 q=38.2 size=    3072KiB time=00:00:03.16 bitrate=7947.2kbits/s speed=0.0148x elapsed=0:03:34.68    \nframe=   97 fps=0.5 q=38.2 size=    3072KiB time=00:00:03.16 bitrate=7947.2kbits/s speed=0.0147x elapsed=0:03:35.22    \nframe=   97 fps=0.4 q=38.2 size=    3072KiB time=00:00:03.16 bitrate=7947.2kbits/s speed=0.0147x elapsed=0:03:35.76    \nframe=   97 fps=0.4 q=38.2 size=    3072KiB time=00:00:03.16 bitrate=7947.2kbits/s speed=0.0146x elapsed=0:03:36.32    \nframe=   97 fps=0.4 q=38.2 size=    3072KiB time=00:00:03.16 bitrate=7947.2kbits/s speed=0.0146x elapsed=0:03:36.85    \nframe=   98 fps=0.5 q=38.2 size=    3072KiB time=00:00:03.20 bitrate=7864.4kbits/s speed=0.0147x elapsed=0:03:37.39    \nframe=   98 fps=0.4 q=38.2 size=    3072KiB time=00:00:03.20 bitrate=7864.4kbits/s speed=0.0147x elapsed=0:03:37.93    \nframe=   98 fps=0.4 q=38.2 size=    3072KiB time=00:00:03.20 bitrate=7864.4kbits/s speed=0.0146x elapsed=0:03:38.45    \nframe=   98 fps=0.4 q=38.2 size=    3072KiB time=00:00:03.20 bitrate=7864.4kbits/s speed=0.0146x elapsed=0:03:38.99    \nframe=   99 fps=0.5 q=32.1 size=    3072KiB time=00:00:03.23 bitrate=7783.4kbits/s speed=0.0147x elapsed=0:03:39.51    \nframe=   99 fps=0.4 q=32.1 size=    3072KiB time=00:00:03.23 bitrate=7783.4kbits/s speed=0.0147x elapsed=0:03:40.02    \nframe=   99 fps=0.4 q=32.1 size=    3072KiB time=00:00:03.23 bitrate=7783.4kbits/s speed=0.0147x elapsed=0:03:40.55    \nframe=   99 fps=0.4 q=32.1 size=    3072KiB time=00:00:03.23 bitrate=7783.4kbits/s speed=0.0146x elapsed=0:03:41.06    \nframe=  100 fps=0.5 q=35.3 size=    3072KiB time=00:00:03.26 bitrate=7703.9kbits/s speed=0.0147x elapsed=0:03:41.62    \nframe=  100 fps=0.5 q=35.3 size=    3072KiB time=00:00:03.26 bitrate=7703.9kbits/s speed=0.0147x elapsed=0:03:42.14    \nframe=  100 fps=0.4 q=35.3 size=    3072KiB time=00:00:03.26 bitrate=7703.9kbits/s speed=0.0147x elapsed=0:03:42.66    \nframe=  100 fps=0.4 q=35.3 size=    3072KiB time=00:00:03.26 bitrate=7703.9kbits/s speed=0.0146x elapsed=0:03:43.18    \nframe=  100 fps=0.4 q=35.3 size=    3072KiB time=00:00:03.26 bitrate=7703.9kbits/s speed=0.0146x elapsed=0:03:43.74    \nframe=  100 fps=0.4 q=35.3 size=    3072KiB time=00:00:03.26 bitrate=7703.9kbits/s speed=0.0146x elapsed=0:03:44.29    \nframe=  101 fps=0.4 q=37.9 size=    3072KiB time=00:00:03.30 bitrate=7626.1kbits/s speed=0.0147x elapsed=0:03:44.84    \nframe=  101 fps=0.4 q=37.9 size=    3072KiB time=00:00:03.30 bitrate=7626.1kbits/s speed=0.0146x elapsed=0:03:45.37    \nframe=  102 fps=0.5 q=38.1 size=    3072KiB time=00:00:03.33 bitrate=7549.9kbits/s speed=0.0148x elapsed=0:03:45.88    \nframe=  102 fps=0.5 q=38.1 size=    3072KiB time=00:00:03.33 bitrate=7549.9kbits/s speed=0.0147x elapsed=0:03:46.41    \nframe=  102 fps=0.4 q=38.1 size=    3072KiB time=00:00:03.33 bitrate=7549.9kbits/s speed=0.0147x elapsed=0:03:46.92    \nframe=  102 fps=0.4 q=38.1 size=    3072KiB time=00:00:03.33 bitrate=7549.9kbits/s speed=0.0147x elapsed=0:03:47.50    \nframe=  102 fps=0.4 q=38.1 size=    3072KiB time=00:00:03.33 bitrate=7549.9kbits/s speed=0.0146x elapsed=0:03:48.08    \nframe=  102 fps=0.4 q=38.1 size=    3072KiB time=00:00:03.33 bitrate=7549.9kbits/s speed=0.0146x elapsed=0:03:48.63    \nframe=  102 fps=0.4 q=38.1 size=    3072KiB time=00:00:03.33 bitrate=7549.9kbits/s speed=0.0145x elapsed=0:03:49.18    \nframe=  102 fps=0.4 q=38.1 size=    3072KiB time=00:00:03.33 bitrate=7549.9kbits/s speed=0.0145x elapsed=0:03:49.73    \nframe=  102 fps=0.4 q=38.1 size=    3072KiB time=00:00:03.33 bitrate=7549.9kbits/s speed=0.0145x elapsed=0:03:50.28    \nframe=  102 fps=0.4 q=38.1 size=    3072KiB time=00:00:03.33 bitrate=7549.9kbits/s speed=0.0144x elapsed=0:03:50.88    \nframe=  102 fps=0.4 q=38.1 size=    3072KiB time=00:00:03.33 bitrate=7549.9kbits/s speed=0.0144x elapsed=0:03:51.50    \nframe=  102 fps=0.4 q=38.1 size=    3072KiB time=00:00:03.33 bitrate=7549.9kbits/s speed=0.0144x elapsed=0:03:52.04    \nframe=  102 fps=0.4 q=38.1 size=    3072KiB time=00:00:03.33 bitrate=7549.9kbits/s speed=0.0143x elapsed=0:03:52.61    \nframe=  102 fps=0.4 q=38.1 size=    3072KiB time=00:00:03.33 bitrate=7549.9kbits/s speed=0.0143x elapsed=0:03:53.13    \nframe=  102 fps=0.4 q=38.1 size=    3072KiB time=00:00:03.33 bitrate=7549.9kbits/s speed=0.0143x elapsed=0:03:53.73    \nframe=  102 fps=0.4 q=38.1 size=    3072KiB time=00:00:03.33 bitrate=7549.9kbits/s speed=0.0142x elapsed=0:03:54.29    \nframe=  102 fps=0.4 q=38.1 size=    3072KiB time=00:00:03.33 bitrate=7549.9kbits/s speed=0.0142x elapsed=0:03:54.84    \nframe=  102 fps=0.4 q=38.1 size=    3072KiB time=00:00:03.33 bitrate=7549.9kbits/s speed=0.0142x elapsed=0:03:55.38    \nframe=  103 fps=0.4 q=32.0 size=    3072KiB time=00:00:03.36 bitrate=7475.1kbits/s speed=0.0143x elapsed=0:03:55.93    \nframe=  104 fps=0.4 q=35.0 size=    3328KiB time=00:00:03.40 bitrate=8018.6kbits/s speed=0.0144x elapsed=0:03:56.45    \nframe=  104 fps=0.4 q=35.0 size=    3328KiB time=00:00:03.40 bitrate=8018.6kbits/s speed=0.0143x elapsed=0:03:56.96    \nframe=  104 fps=0.4 q=35.0 size=    3328KiB time=00:00:03.40 bitrate=8018.6kbits/s speed=0.0143x elapsed=0:03:57.48    \nframe=  104 fps=0.4 q=35.0 size=    3328KiB time=00:00:03.40 bitrate=8018.6kbits/s speed=0.0143x elapsed=0:03:58.01    \nframe=  105 fps=0.4 q=37.8 size=    3328KiB time=00:00:03.43 bitrate=7940.8kbits/s speed=0.0144x elapsed=0:03:58.55    \nframe=  105 fps=0.4 q=37.8 size=    3328KiB time=00:00:03.43 bitrate=7940.8kbits/s speed=0.0144x elapsed=0:03:59.08    \nframe=  106 fps=0.4 q=38.1 size=    3328KiB time=00:00:03.46 bitrate=7864.4kbits/s speed=0.0145x elapsed=0:03:59.58    \nframe=  106 fps=0.4 q=38.1 size=    3328KiB time=00:00:03.46 bitrate=7864.4kbits/s speed=0.0144x elapsed=0:04:00.11    \nframe=  107 fps=0.4 q=38.1 size=    3328KiB time=00:00:03.50 bitrate=7789.5kbits/s speed=0.0145x elapsed=0:04:00.62    \nframe=  107 fps=0.4 q=38.1 size=    3328KiB time=00:00:03.50 bitrate=7789.5kbits/s speed=0.0145x elapsed=0:04:01.14    \nframe=  107 fps=0.4 q=38.1 size=    3328KiB time=00:00:03.50 bitrate=7789.5kbits/s speed=0.0145x elapsed=0:04:01.65    \nframe=  108 fps=0.4 q=32.2 size=    3328KiB time=00:00:03.53 bitrate=7716.0kbits/s speed=0.0146x elapsed=0:04:02.18    \nframe=  108 fps=0.4 q=32.2 size=    3328KiB time=00:00:03.53 bitrate=7716.0kbits/s speed=0.0146x elapsed=0:04:02.69    \nframe=  108 fps=0.4 q=32.2 size=    3328KiB time=00:00:03.53 bitrate=7716.0kbits/s speed=0.0145x elapsed=0:04:03.21    \nframe=  109 fps=0.4 q=36.0 size=    3328KiB time=00:00:03.56 bitrate=7643.9kbits/s speed=0.0146x elapsed=0:04:03.74    \nframe=  109 fps=0.4 q=36.0 size=    3328KiB time=00:00:03.56 bitrate=7643.9kbits/s speed=0.0146x elapsed=0:04:04.28    \nframe=  110 fps=0.4 q=37.9 size=    3328KiB time=00:00:03.60 bitrate=7573.1kbits/s speed=0.0147x elapsed=0:04:04.79    \nframe=  110 fps=0.4 q=37.9 size=    3328KiB time=00:00:03.60 bitrate=7573.1kbits/s speed=0.0147x elapsed=0:04:05.30    \nframe=  110 fps=0.4 q=37.9 size=    3328KiB time=00:00:03.60 bitrate=7573.1kbits/s speed=0.0146x elapsed=0:04:05.84    \nframe=  111 fps=0.5 q=32.3 size=    3584KiB time=00:00:03.63 bitrate=8080.9kbits/s speed=0.0147x elapsed=0:04:06.38    \nframe=  111 fps=0.4 q=32.3 size=    3584KiB time=00:00:03.63 bitrate=8080.9kbits/s speed=0.0147x elapsed=0:04:06.90    \nframe=  111 fps=0.4 q=32.3 size=    3584KiB time=00:00:03.63 bitrate=8080.9kbits/s speed=0.0147x elapsed=0:04:07.43    \nframe=  112 fps=0.5 q=35.5 size=    3584KiB time=00:00:03.66 bitrate=8007.4kbits/s speed=0.0148x elapsed=0:04:07.95    \nframe=  112 fps=0.5 q=35.5 size=    3584KiB time=00:00:03.66 bitrate=8007.4kbits/s speed=0.0148x elapsed=0:04:08.52    \nframe=  112 fps=0.4 q=35.5 size=    3584KiB time=00:00:03.66 bitrate=8007.4kbits/s speed=0.0147x elapsed=0:04:09.03    \nframe=  112 fps=0.4 q=35.5 size=    3584KiB time=00:00:03.66 bitrate=8007.4kbits/s speed=0.0147x elapsed=0:04:09.54    \nframe=  112 fps=0.4 q=35.5 size=    3584KiB time=00:00:03.66 bitrate=8007.4kbits/s speed=0.0147x elapsed=0:04:10.07    \nframe=  112 fps=0.4 q=35.5 size=    3584KiB time=00:00:03.66 bitrate=8007.4kbits/s speed=0.0146x elapsed=0:04:10.62    \nframe=  114 fps=0.5 q=32.4 size=    3584KiB time=00:00:03.73 bitrate=7864.4kbits/s speed=0.0149x elapsed=0:04:11.15    \nframe=  114 fps=0.5 q=32.4 size=    3584KiB time=00:00:03.73 bitrate=7864.4kbits/s speed=0.0148x elapsed=0:04:11.68    \nframe=  114 fps=0.5 q=32.4 size=    3584KiB time=00:00:03.73 bitrate=7864.4kbits/s speed=0.0148x elapsed=0:04:12.19    \nframe=  114 fps=0.5 q=32.4 size=    3584KiB time=00:00:03.73 bitrate=7864.4kbits/s speed=0.0148x elapsed=0:04:12.71    \nframe=  115 fps=0.5 q=36.9 size=    3584KiB time=00:00:03.76 bitrate=7794.8kbits/s speed=0.0149x elapsed=0:04:13.25    \nframe=  115 fps=0.5 q=36.9 size=    3584KiB time=00:00:03.76 bitrate=7794.8kbits/s speed=0.0148x elapsed=0:04:13.77    \nframe=  115 fps=0.5 q=36.9 size=    3584KiB time=00:00:03.76 bitrate=7794.8kbits/s speed=0.0148x elapsed=0:04:14.30    \nframe=  115 fps=0.5 q=36.9 size=    3584KiB time=00:00:03.76 bitrate=7794.8kbits/s speed=0.0148x elapsed=0:04:14.80    \nframe=  116 fps=0.5 q=38.1 size=    3584KiB time=00:00:03.80 bitrate=7726.4kbits/s speed=0.0149x elapsed=0:04:15.32    \nframe=  117 fps=0.5 q=32.1 size=    3584KiB time=00:00:03.83 bitrate=7659.3kbits/s speed=0.015x elapsed=0:04:15.84    \nframe=  117 fps=0.5 q=32.1 size=    3584KiB time=00:00:03.83 bitrate=7659.3kbits/s speed=0.015x elapsed=0:04:16.37    \nframe=  118 fps=0.5 q=35.4 size=    3840KiB time=00:00:03.86 bitrate=8135.6kbits/s speed=0.0151x elapsed=0:04:16.88    \nframe=  118 fps=0.5 q=35.4 size=    3840KiB time=00:00:03.86 bitrate=8135.6kbits/s speed=0.015x elapsed=0:04:17.41    \nframe=  118 fps=0.5 q=35.4 size=    3840KiB time=00:00:03.86 bitrate=8135.6kbits/s speed=0.015x elapsed=0:04:17.95    \nframe=  118 fps=0.5 q=35.4 size=    3840KiB time=00:00:03.86 bitrate=8135.6kbits/s speed=0.015x elapsed=0:04:18.49    \nframe=  119 fps=0.5 q=38.2 size=    3840KiB time=00:00:03.90 bitrate=8066.1kbits/s speed=0.0151x elapsed=0:04:19.01    \nframe=  119 fps=0.5 q=38.2 size=    3840KiB time=00:00:03.90 bitrate=8066.1kbits/s speed=0.015x elapsed=0:04:19.52    \nframe=  119 fps=0.5 q=38.2 size=    3840KiB time=00:00:03.90 bitrate=8066.1kbits/s speed=0.015x elapsed=0:04:20.07    \nframe=  120 fps=0.5 q=37.8 size=    3840KiB time=00:00:03.93 bitrate=7997.7kbits/s speed=0.0151x elapsed=0:04:20.59    \nframe=  120 fps=0.5 q=37.8 size=    3840KiB time=00:00:03.93 bitrate=7997.7kbits/s speed=0.0151x elapsed=0:04:21.11    \nframe=  121 fps=0.5 q=32.0 size=    3840KiB time=00:00:03.96 bitrate=7930.5kbits/s speed=0.0152x elapsed=0:04:21.62    \nframe=  122 fps=0.5 q=34.7 size=    3840KiB time=00:00:04.00 bitrate=7864.4kbits/s speed=0.0153x elapsed=0:04:22.14    \nframe=  122 fps=0.5 q=34.7 size=    3840KiB time=00:00:04.00 bitrate=7864.4kbits/s speed=0.0152x elapsed=0:04:22.69    \nframe=  122 fps=0.5 q=34.7 size=    3840KiB time=00:00:04.00 bitrate=7864.4kbits/s speed=0.0152x elapsed=0:04:23.20    \nframe=  123 fps=0.5 q=37.9 size=    3840KiB time=00:00:04.03 bitrate=7799.4kbits/s speed=0.0153x elapsed=0:04:23.72    \nframe=  124 fps=0.5 q=37.9 size=    3840KiB time=00:00:04.06 bitrate=7735.5kbits/s speed=0.0154x elapsed=0:04:24.25    \nframe=  124 fps=0.5 q=37.9 size=    3840KiB time=00:00:04.06 bitrate=7735.5kbits/s speed=0.0154x elapsed=0:04:24.78    \nframe=  124 fps=0.5 q=37.9 size=    3840KiB time=00:00:04.06 bitrate=7735.5kbits/s speed=0.0153x elapsed=0:04:25.30    \nframe=  125 fps=0.5 q=37.5 size=    3840KiB time=00:00:04.10 bitrate=7672.6kbits/s speed=0.0154x elapsed=0:04:25.80    \nframe=  125 fps=0.5 q=37.5 size=    3840KiB time=00:00:04.10 bitrate=7672.6kbits/s speed=0.0154x elapsed=0:04:26.34    \nframe=  125 fps=0.5 q=37.5 size=    3840KiB time=00:00:04.10 bitrate=7672.6kbits/s speed=0.0154x elapsed=0:04:26.88    \nframe=  126 fps=0.5 q=31.9 size=    3840KiB time=00:00:04.13 bitrate=7610.7kbits/s speed=0.0155x elapsed=0:04:27.40    \nframe=  126 fps=0.5 q=31.9 size=    3840KiB time=00:00:04.13 bitrate=7610.7kbits/s speed=0.0154x elapsed=0:04:27.91    \nframe=  127 fps=0.5 q=35.5 size=    4096KiB time=00:00:04.16 bitrate=8053.1kbits/s speed=0.0155x elapsed=0:04:28.43    \nframe=  127 fps=0.5 q=35.5 size=    4096KiB time=00:00:04.16 bitrate=8053.1kbits/s speed=0.0155x elapsed=0:04:28.96    \nframe=  128 fps=0.5 q=37.7 size=    4096KiB time=00:00:04.20 bitrate=7989.2kbits/s speed=0.0156x elapsed=0:04:29.48    \nframe=  128 fps=0.5 q=37.7 size=    4096KiB time=00:00:04.20 bitrate=7989.2kbits/s speed=0.0156x elapsed=0:04:30.02    \nframe=  129 fps=0.5 q=31.8 size=    4096KiB time=00:00:04.23 bitrate=7926.3kbits/s speed=0.0156x elapsed=0:04:30.55    \nframe=  130 fps=0.5 q=34.8 size=    4096KiB time=00:00:04.26 bitrate=7864.4kbits/s speed=0.0157x elapsed=0:04:31.06    \nframe=  130 fps=0.5 q=34.8 size=    4096KiB time=00:00:04.26 bitrate=7864.4kbits/s speed=0.0157x elapsed=0:04:31.58    \nframe=  131 fps=0.5 q=37.2 size=    4096KiB time=00:00:04.30 bitrate=7803.4kbits/s speed=0.0158x elapsed=0:04:32.09    \nframe=  131 fps=0.5 q=37.2 size=    4096KiB time=00:00:04.30 bitrate=7803.4kbits/s speed=0.0158x elapsed=0:04:32.61    \nframe=  131 fps=0.5 q=37.2 size=    4096KiB time=00:00:04.30 bitrate=7803.4kbits/s speed=0.0157x elapsed=0:04:33.13    \nframe=  131 fps=0.5 q=37.2 size=    4096KiB time=00:00:04.30 bitrate=7803.4kbits/s speed=0.0157x elapsed=0:04:33.67    \nframe=  131 fps=0.5 q=37.2 size=    4096KiB time=00:00:04.30 bitrate=7803.4kbits/s speed=0.0157x elapsed=0:04:34.21    \nframe=  132 fps=0.5 q=37.3 size=    4096KiB time=00:00:04.33 bitrate=7743.4kbits/s speed=0.0158x elapsed=0:04:34.73    \nframe=  132 fps=0.5 q=37.3 size=    4096KiB time=00:00:04.33 bitrate=7743.4kbits/s speed=0.0157x elapsed=0:04:35.26    \nframe=  132 fps=0.5 q=37.3 size=    4096KiB time=00:00:04.33 bitrate=7743.4kbits/s speed=0.0157x elapsed=0:04:35.78    \nframe=  132 fps=0.5 q=37.3 size=    4096KiB time=00:00:04.33 bitrate=7743.4kbits/s speed=0.0157x elapsed=0:04:36.29    \nframe=  133 fps=0.5 q=31.7 size=    4096KiB time=00:00:04.36 bitrate=7684.3kbits/s speed=0.0158x elapsed=0:04:36.83    \nframe=  133 fps=0.5 q=31.7 size=    4096KiB time=00:00:04.36 bitrate=7684.3kbits/s speed=0.0157x elapsed=0:04:37.33    \nframe=  133 fps=0.5 q=31.7 size=    4096KiB time=00:00:04.36 bitrate=7684.3kbits/s speed=0.0157x elapsed=0:04:37.85    \nframe=  133 fps=0.5 q=31.7 size=    4096KiB time=00:00:04.36 bitrate=7684.3kbits/s speed=0.0157x elapsed=0:04:38.37    \nframe=  134 fps=0.5 q=32.4 size=    4352KiB time=00:00:04.40 bitrate=8102.7kbits/s speed=0.0158x elapsed=0:04:38.90    \nframe=  134 fps=0.5 q=32.4 size=    4352KiB time=00:00:04.40 bitrate=8102.7kbits/s speed=0.0157x elapsed=0:04:39.41    \nframe=  135 fps=0.5 q=37.5 size=    4352KiB time=00:00:04.43 bitrate=8041.8kbits/s speed=0.0158x elapsed=0:04:39.94    \nframe=  135 fps=0.5 q=37.5 size=    4352KiB time=00:00:04.43 bitrate=8041.8kbits/s speed=0.0158x elapsed=0:04:40.46    \nframe=  136 fps=0.5 q=37.3 size=    4352KiB time=00:00:04.46 bitrate=7981.8kbits/s speed=0.0159x elapsed=0:04:40.99    \nframe=  136 fps=0.5 q=37.3 size=    4352KiB time=00:00:04.46 bitrate=7981.8kbits/s speed=0.0159x elapsed=0:04:41.51    \nframe=  136 fps=0.5 q=37.3 size=    4352KiB time=00:00:04.46 bitrate=7981.8kbits/s speed=0.0158x elapsed=0:04:42.03    \nframe=  136 fps=0.5 q=37.3 size=    4352KiB time=00:00:04.46 bitrate=7981.8kbits/s speed=0.0158x elapsed=0:04:42.54    \nframe=  136 fps=0.5 q=37.3 size=    4352KiB time=00:00:04.46 bitrate=7981.8kbits/s speed=0.0158x elapsed=0:04:43.06    \nframe=  136 fps=0.5 q=37.3 size=    4352KiB time=00:00:04.46 bitrate=7981.8kbits/s speed=0.0157x elapsed=0:04:43.60    \nframe=  137 fps=0.5 q=37.7 size=    4352KiB time=00:00:04.50 bitrate=7922.7kbits/s speed=0.0158x elapsed=0:04:44.13    \nframe=  137 fps=0.5 q=37.7 size=    4352KiB time=00:00:04.50 bitrate=7922.7kbits/s speed=0.0158x elapsed=0:04:44.66    \nframe=  138 fps=0.5 q=32.1 size=    4352KiB time=00:00:04.53 bitrate=7864.4kbits/s speed=0.0159x elapsed=0:04:45.21    \nframe=  138 fps=0.5 q=32.1 size=    4352KiB time=00:00:04.53 bitrate=7864.4kbits/s speed=0.0159x elapsed=0:04:45.73    \nframe=  139 fps=0.5 q=35.0 size=    4352KiB time=00:00:04.56 bitrate=7807.0kbits/s speed=0.016x elapsed=0:04:46.27    \nframe=  139 fps=0.5 q=35.0 size=    4352KiB time=00:00:04.56 bitrate=7807.0kbits/s speed=0.0159x elapsed=0:04:46.81    \nframe=  139 fps=0.5 q=35.0 size=    4352KiB time=00:00:04.56 bitrate=7807.0kbits/s speed=0.0159x elapsed=0:04:47.32    \nframe=  139 fps=0.5 q=35.0 size=    4352KiB time=00:00:04.56 bitrate=7807.0kbits/s speed=0.0159x elapsed=0:04:47.84    \nframe=  139 fps=0.5 q=35.0 size=    4352KiB time=00:00:04.56 bitrate=7807.0kbits/s speed=0.0158x elapsed=0:04:48.41    \nframe=  140 fps=0.5 q=37.6 size=    4352KiB time=00:00:04.60 bitrate=7750.4kbits/s speed=0.0159x elapsed=0:04:48.93    \nframe=  140 fps=0.5 q=37.6 size=    4352KiB time=00:00:04.60 bitrate=7750.4kbits/s speed=0.0159x elapsed=0:04:49.46    \nframe=  140 fps=0.5 q=37.6 size=    4352KiB time=00:00:04.60 bitrate=7750.4kbits/s speed=0.0159x elapsed=0:04:50.04    \nframe=  140 fps=0.5 q=37.6 size=    4352KiB time=00:00:04.60 bitrate=7750.4kbits/s speed=0.0158x elapsed=0:04:50.59    \nframe=  140 fps=0.5 q=37.6 size=    4352KiB time=00:00:04.60 bitrate=7750.4kbits/s speed=0.0158x elapsed=0:04:51.10    \nframe=  141 fps=0.5 q=37.8 size=    4352KiB time=00:00:04.63 bitrate=7694.7kbits/s speed=0.0159x elapsed=0:04:51.63    \nframe=  141 fps=0.5 q=37.8 size=    4352KiB time=00:00:04.63 bitrate=7694.7kbits/s speed=0.0159x elapsed=0:04:52.15    \nframe=  141 fps=0.5 q=37.8 size=    4352KiB time=00:00:04.63 bitrate=7694.7kbits/s speed=0.0158x elapsed=0:04:52.71    \nframe=  141 fps=0.5 q=37.8 size=    4352KiB time=00:00:04.63 bitrate=7694.7kbits/s speed=0.0158x elapsed=0:04:53.25    \nframe=  141 fps=0.5 q=37.8 size=    4352KiB time=00:00:04.63 bitrate=7694.7kbits/s speed=0.0158x elapsed=0:04:53.77    \nframe=  141 fps=0.5 q=37.8 size=    4352KiB time=00:00:04.63 bitrate=7694.7kbits/s speed=0.0157x elapsed=0:04:54.28    \nframe=  142 fps=0.5 q=33.0 size=    4352KiB time=00:00:04.66 bitrate=7639.7kbits/s speed=0.0158x elapsed=0:04:54.79    \nframe=  142 fps=0.5 q=33.0 size=    4352KiB time=00:00:04.66 bitrate=7639.7kbits/s speed=0.0158x elapsed=0:04:55.31    \nframe=  142 fps=0.5 q=33.0 size=    4352KiB time=00:00:04.66 bitrate=7639.7kbits/s speed=0.0158x elapsed=0:04:55.84    \nframe=  143 fps=0.5 q=36.5 size=    4608KiB time=00:00:04.70 bitrate=8031.7kbits/s speed=0.0159x elapsed=0:04:56.39    \nframe=  143 fps=0.5 q=36.5 size=    4608KiB time=00:00:04.70 bitrate=8031.7kbits/s speed=0.0158x elapsed=0:04:56.97    \nframe=  144 fps=0.5 q=37.7 size=    4608KiB time=00:00:04.73 bitrate=7975.2kbits/s speed=0.0159x elapsed=0:04:57.53    \nframe=  144 fps=0.5 q=37.7 size=    4608KiB time=00:00:04.73 bitrate=7975.2kbits/s speed=0.0159x elapsed=0:04:58.10    \nframe=  144 fps=0.5 q=37.7 size=    4608KiB time=00:00:04.73 bitrate=7975.2kbits/s speed=0.0158x elapsed=0:04:58.64    \nframe=  144 fps=0.5 q=37.7 size=    4608KiB time=00:00:04.73 bitrate=7975.2kbits/s speed=0.0158x elapsed=0:04:59.16    \nframe=  144 fps=0.5 q=37.7 size=    4608KiB time=00:00:04.73 bitrate=7975.2kbits/s speed=0.0158x elapsed=0:04:59.73    \nframe=  144 fps=0.5 q=37.7 size=    4608KiB time=00:00:04.73 bitrate=7975.2kbits/s speed=0.0158x elapsed=0:05:00.36    \nframe=  144 fps=0.5 q=37.7 size=    4608KiB time=00:00:04.73 bitrate=7975.2kbits/s speed=0.0157x elapsed=0:05:00.94    \nframe=  144 fps=0.5 q=37.7 size=    4608KiB time=00:00:04.73 bitrate=7975.2kbits/s speed=0.0157x elapsed=0:05:01.50    \nframe=  144 fps=0.5 q=37.7 size=    4608KiB time=00:00:04.73 bitrate=7975.2kbits/s speed=0.0157x elapsed=0:05:02.06    \nframe=  144 fps=0.5 q=37.7 size=    4608KiB time=00:00:04.73 bitrate=7975.2kbits/s speed=0.0156x elapsed=0:05:02.65    \nframe=  144 fps=0.5 q=37.7 size=    4608KiB time=00:00:04.73 bitrate=7975.2kbits/s speed=0.0156x elapsed=0:05:03.26    \nframe=  144 fps=0.5 q=37.7 size=    4608KiB time=00:00:04.73 bitrate=7975.2kbits/s speed=0.0156x elapsed=0:05:03.81    \nframe=  144 fps=0.5 q=37.7 size=    4608KiB time=00:00:04.73 bitrate=7975.2kbits/s speed=0.0156x elapsed=0:05:04.36    \nframe=  145 fps=0.5 q=37.8 size=    4608KiB time=00:00:04.76 bitrate=7919.4kbits/s speed=0.0156x elapsed=0:05:04.89    \nframe=  146 fps=0.5 q=37.9 size=    4608KiB time=00:00:04.80 bitrate=7864.4kbits/s speed=0.0157x elapsed=0:05:05.45    \nframe=  146 fps=0.5 q=37.9 size=    4608KiB time=00:00:04.80 bitrate=7864.4kbits/s speed=0.0157x elapsed=0:05:05.97    \nframe=  146 fps=0.5 q=37.9 size=    4608KiB time=00:00:04.80 bitrate=7864.4kbits/s speed=0.0157x elapsed=0:05:06.52    \nframe=  146 fps=0.5 q=37.9 size=    4608KiB time=00:00:04.80 bitrate=7864.4kbits/s speed=0.0156x elapsed=0:05:07.05    \nframe=  146 fps=0.5 q=37.9 size=    4608KiB time=00:00:04.80 bitrate=7864.4kbits/s speed=0.0156x elapsed=0:05:07.56    \nframe=  147 fps=0.5 q=35.2 size=    4608KiB time=00:00:04.83 bitrate=7810.2kbits/s speed=0.0157x elapsed=0:05:08.09    \nframe=  147 fps=0.5 q=35.2 size=    4608KiB time=00:00:04.83 bitrate=7810.2kbits/s speed=0.0157x elapsed=0:05:08.60    \nframe=  147 fps=0.5 q=35.2 size=    4608KiB time=00:00:04.83 bitrate=7810.2kbits/s speed=0.0156x elapsed=0:05:09.12    \nframe=  147 fps=0.5 q=35.2 size=    4608KiB time=00:00:04.83 bitrate=7810.2kbits/s speed=0.0156x elapsed=0:05:09.66    \nframe=  147 fps=0.5 q=35.2 size=    4608KiB time=00:00:04.83 bitrate=7810.2kbits/s speed=0.0156x elapsed=0:05:10.18    \nframe=  148 fps=0.5 q=35.2 size=    4608KiB time=00:00:04.86 bitrate=7756.7kbits/s speed=0.0157x elapsed=0:05:10.70    \n[mp4 @ 0000024ab32a9740] Starting second pass: moving the moov atom to the beginning of the file\n[out#0/mp4 @ 0000024ab329ab00] video:4851KiB audio:0KiB subtitle:0KiB other streams:0KiB global headers:2KiB muxing overhead: 0.105965%\nframe=  150 fps=0.5 q=37.8 Lsize=    4856KiB time=00:00:04.93 bitrate=8064.2kbits/s speed=0.0159x elapsed=0:05:11.09    \nx265 [info]: frame I:      1, Avg QP:27.74  kb/s: 52408.32\nx265 [info]: frame P:     36, Avg QP:32.10  kb/s: 22184.93\nx265 [info]: frame B:    113, Avg QP:37.14  kb/s: 3017.99 \nx265 [info]: Weighted P-Frames: Y:63.9% UV:58.3%\n\nencoded 150 frames in 310.51s (0.48 fps), 7947.32 kb/s, Avg QP:35.87\n",
  "seconds": 311.6366972923279,
  "probe_out": {}
}